<svg width="38" height="18" viewBox="0 0 38 18" fill="none" xmlns="http://www.w3.org/2000/svg">
<rect x="0.486328" width="38" height="18" rx="9" fill="#F4F8EC"/>
<path d="M9.14633 6.556C9.18633 5.756 9.46633 5.14 9.98633 4.708C10.5143 4.268 11.2063 4.048 12.0623 4.048C12.6463 4.048 13.1463 4.152 13.5623 4.36C13.9783 4.56 14.2903 4.836 14.4983 5.188C14.7143 5.532 14.8223 5.924 14.8223 6.364C14.8223 6.868 14.6903 7.296 14.4263 7.648C14.1703 7.992 13.8623 8.224 13.5023 8.344V8.392C13.9663 8.536 14.3263 8.792 14.5823 9.16C14.8463 9.528 14.9783 10 14.9783 10.576C14.9783 11.056 14.8663 11.484 14.6423 11.86C14.4263 12.236 14.1023 12.532 13.6703 12.748C13.2463 12.956 12.7343 13.06 12.1343 13.06C11.2303 13.06 10.4943 12.832 9.92633 12.376C9.35833 11.92 9.05833 11.248 9.02633 10.36H10.6583C10.6743 10.752 10.8063 11.068 11.0543 11.308C11.3103 11.54 11.6583 11.656 12.0983 11.656C12.5063 11.656 12.8183 11.544 13.0343 11.32C13.2583 11.088 13.3703 10.792 13.3703 10.432C13.3703 9.952 13.2183 9.608 12.9143 9.4C12.6103 9.192 12.1383 9.088 11.4983 9.088H11.1503V7.708H11.4983C12.6343 7.708 13.2023 7.328 13.2023 6.568C13.2023 6.224 13.0983 5.956 12.8903 5.764C12.6903 5.572 12.3983 5.476 12.0143 5.476C11.6383 5.476 11.3463 5.58 11.1383 5.788C10.9383 5.988 10.8223 6.244 10.7903 6.556H9.14633ZM16.8339 11.104C17.6019 10.464 18.2139 9.932 18.6699 9.508C19.1259 9.076 19.5059 8.628 19.8099 8.164C20.1139 7.7 20.2659 7.244 20.2659 6.796C20.2659 6.388 20.1699 6.068 19.9779 5.836C19.7859 5.604 19.4899 5.488 19.0899 5.488C18.6899 5.488 18.3819 5.624 18.1659 5.896C17.9499 6.16 17.8379 6.524 17.8299 6.988H16.1979C16.2299 6.028 16.5139 5.3 17.0499 4.804C17.5939 4.308 18.2819 4.06 19.1139 4.06C20.0259 4.06 20.7259 4.304 21.2139 4.792C21.7019 5.272 21.9459 5.908 21.9459 6.7C21.9459 7.324 21.7779 7.92 21.4419 8.488C21.1059 9.056 20.7219 9.552 20.2899 9.976C19.8579 10.392 19.2939 10.896 18.5979 11.488H22.1379V12.88H16.2099V11.632L16.8339 11.104ZM23.1965 8.512C23.1965 7.128 23.4445 6.044 23.9405 5.26C24.4445 4.476 25.2765 4.084 26.4365 4.084C27.5965 4.084 28.4245 4.476 28.9205 5.26C29.4245 6.044 29.6765 7.128 29.6765 8.512C29.6765 9.904 29.4245 10.996 28.9205 11.788C28.4245 12.58 27.5965 12.976 26.4365 12.976C25.2765 12.976 24.4445 12.58 23.9405 11.788C23.4445 10.996 23.1965 9.904 23.1965 8.512ZM28.0205 8.512C28.0205 7.92 27.9805 7.424 27.9005 7.024C27.8285 6.616 27.6765 6.284 27.4445 6.028C27.2205 5.772 26.8845 5.644 26.4365 5.644C25.9885 5.644 25.6485 5.772 25.4165 6.028C25.1925 6.284 25.0405 6.616 24.9605 7.024C24.8885 7.424 24.8525 7.92 24.8525 8.512C24.8525 9.12 24.8885 9.632 24.9605 10.048C25.0325 10.456 25.1845 10.788 25.4165 11.044C25.6485 11.292 25.9885 11.416 26.4365 11.416C26.8845 11.416 27.2245 11.292 27.4565 11.044C27.6885 10.788 27.8405 10.456 27.9125 10.048C27.9845 9.632 28.0205 9.12 28.0205 8.512Z" fill="#6A983C"/>
</svg>
