<svg width="112" height="49" viewBox="0 0 112 49" fill="none" xmlns="http://www.w3.org/2000/svg">
<rect x="1.32812" y="1" width="110" height="47" rx="11.5" fill="#F9F9F9"/>
<rect x="1.32812" y="1" width="110" height="47" rx="11.5" stroke="#D1D1D1"/>
<mask id="path-2-inside-1_8045_318" fill="white">
<path d="M21.7432 30H20.6357V22.918C20.6357 22.6491 20.6357 22.4189 20.6357 22.2275C20.6403 22.0316 20.6449 21.8538 20.6494 21.6943C20.6585 21.5303 20.6699 21.3639 20.6836 21.1953C20.5423 21.3411 20.4102 21.4665 20.2871 21.5713C20.1641 21.6715 20.0114 21.7969 19.8291 21.9473L18.6875 22.8633L18.0928 22.0908L20.7998 20.0059H21.7432V30Z"/>
</mask>
<path d="M21.7432 30H20.6357V22.918C20.6357 22.6491 20.6357 22.4189 20.6357 22.2275C20.6403 22.0316 20.6449 21.8538 20.6494 21.6943C20.6585 21.5303 20.6699 21.3639 20.6836 21.1953C20.5423 21.3411 20.4102 21.4665 20.2871 21.5713C20.1641 21.6715 20.0114 21.7969 19.8291 21.9473L18.6875 22.8633L18.0928 22.0908L20.7998 20.0059H21.7432V30Z" fill="#F9F9F9"/>
<path d="M21.7432 30V31H22.7432V30H21.7432ZM20.6357 30H19.6357V31H20.6357V30ZM20.6357 22.2275L19.636 22.2043L19.6357 22.2159V22.2275H20.6357ZM20.6494 21.6943L19.651 21.6389L19.6502 21.6523L19.6498 21.6658L20.6494 21.6943ZM20.6836 21.1953L21.6803 21.2761L21.9057 18.4966L19.9654 20.4995L20.6836 21.1953ZM20.2871 21.5713L20.9188 22.3465L20.9273 22.3396L20.9356 22.3325L20.2871 21.5713ZM19.8291 21.9473L20.455 22.7273L20.4655 22.7186L19.8291 21.9473ZM18.6875 22.8633L17.8951 23.4733L18.5176 24.2818L19.3133 23.6432L18.6875 22.8633ZM18.0928 22.0908L17.4826 21.2986L16.6905 21.9087L17.3004 22.7009L18.0928 22.0908ZM20.7998 20.0059V19.0059H20.4593L20.1896 19.2136L20.7998 20.0059ZM21.7432 20.0059H22.7432V19.0059H21.7432V20.0059ZM21.7432 29H20.6357V31H21.7432V29ZM21.6357 30V22.918H19.6357V30H21.6357ZM21.6357 22.918C21.6357 22.9174 21.6357 22.9169 21.6357 22.9164C21.6357 22.9159 21.6357 22.9153 21.6357 22.9148C21.6357 22.9143 21.6357 22.9138 21.6357 22.9132C21.6357 22.9127 21.6357 22.9122 21.6357 22.9117C21.6357 22.9111 21.6357 22.9106 21.6357 22.9101C21.6357 22.9096 21.6357 22.9091 21.6357 22.9085C21.6357 22.908 21.6357 22.9075 21.6357 22.907C21.6357 22.9064 21.6357 22.9059 21.6357 22.9054C21.6357 22.9049 21.6357 22.9043 21.6357 22.9038C21.6357 22.9033 21.6357 22.9028 21.6357 22.9023C21.6357 22.9017 21.6357 22.9012 21.6357 22.9007C21.6357 22.9002 21.6357 22.8996 21.6357 22.8991C21.6357 22.8986 21.6357 22.8981 21.6357 22.8976C21.6357 22.897 21.6357 22.8965 21.6357 22.896C21.6357 22.8955 21.6357 22.895 21.6357 22.8944C21.6357 22.8939 21.6357 22.8934 21.6357 22.8929C21.6357 22.8924 21.6357 22.8918 21.6357 22.8913C21.6357 22.8908 21.6357 22.8903 21.6357 22.8898C21.6357 22.8892 21.6357 22.8887 21.6357 22.8882C21.6357 22.8877 21.6357 22.8872 21.6357 22.8866C21.6357 22.8861 21.6357 22.8856 21.6357 22.8851C21.6357 22.8846 21.6357 22.884 21.6357 22.8835C21.6357 22.883 21.6357 22.8825 21.6357 22.882C21.6357 22.8814 21.6357 22.8809 21.6357 22.8804C21.6357 22.8799 21.6357 22.8794 21.6357 22.8789C21.6357 22.8783 21.6357 22.8778 21.6357 22.8773C21.6357 22.8768 21.6357 22.8763 21.6357 22.8758C21.6357 22.8752 21.6357 22.8747 21.6357 22.8742C21.6357 22.8737 21.6357 22.8732 21.6357 22.8727C21.6357 22.8721 21.6357 22.8716 21.6357 22.8711C21.6357 22.8706 21.6357 22.8701 21.6357 22.8696C21.6357 22.869 21.6357 22.8685 21.6357 22.868C21.6357 22.8675 21.6357 22.867 21.6357 22.8665C21.6357 22.8659 21.6357 22.8654 21.6357 22.8649C21.6357 22.8644 21.6357 22.8639 21.6357 22.8634C21.6357 22.8629 21.6357 22.8623 21.6357 22.8618C21.6357 22.8613 21.6357 22.8608 21.6357 22.8603C21.6357 22.8598 21.6357 22.8593 21.6357 22.8587C21.6357 22.8582 21.6357 22.8577 21.6357 22.8572C21.6357 22.8567 21.6357 22.8562 21.6357 22.8557C21.6357 22.8551 21.6357 22.8546 21.6357 22.8541C21.6357 22.8536 21.6357 22.8531 21.6357 22.8526C21.6357 22.8521 21.6357 22.8516 21.6357 22.851C21.6357 22.8505 21.6357 22.85 21.6357 22.8495C21.6357 22.849 21.6357 22.8485 21.6357 22.848C21.6357 22.8475 21.6357 22.8469 21.6357 22.8464C21.6357 22.8459 21.6357 22.8454 21.6357 22.8449C21.6357 22.8444 21.6357 22.8439 21.6357 22.8434C21.6357 22.8429 21.6357 22.8423 21.6357 22.8418C21.6357 22.8413 21.6357 22.8408 21.6357 22.8403C21.6357 22.8398 21.6357 22.8393 21.6357 22.8388C21.6357 22.8383 21.6357 22.8378 21.6357 22.8372C21.6357 22.8367 21.6357 22.8362 21.6357 22.8357C21.6357 22.8352 21.6357 22.8347 21.6357 22.8342C21.6357 22.8337 21.6357 22.8332 21.6357 22.8327C21.6357 22.8322 21.6357 22.8316 21.6357 22.8311C21.6357 22.8306 21.6357 22.8301 21.6357 22.8296C21.6357 22.8291 21.6357 22.8286 21.6357 22.8281C21.6357 22.8276 21.6357 22.8271 21.6357 22.8266C21.6357 22.8261 21.6357 22.8255 21.6357 22.825C21.6357 22.8245 21.6357 22.824 21.6357 22.8235C21.6357 22.823 21.6357 22.8225 21.6357 22.822C21.6357 22.8215 21.6357 22.821 21.6357 22.8205C21.6357 22.82 21.6357 22.8195 21.6357 22.819C21.6357 22.8184 21.6357 22.8179 21.6357 22.8174C21.6357 22.8169 21.6357 22.8164 21.6357 22.8159C21.6357 22.8154 21.6357 22.8149 21.6357 22.8144C21.6357 22.8139 21.6357 22.8134 21.6357 22.8129C21.6357 22.8124 21.6357 22.8119 21.6357 22.8114C21.6357 22.8109 21.6357 22.8104 21.6357 22.8099C21.6357 22.8094 21.6357 22.8088 21.6357 22.8083C21.6357 22.8078 21.6357 22.8073 21.6357 22.8068C21.6357 22.8063 21.6357 22.8058 21.6357 22.8053C21.6357 22.8048 21.6357 22.8043 21.6357 22.8038C21.6357 22.8033 21.6357 22.8028 21.6357 22.8023C21.6357 22.8018 21.6357 22.8013 21.6357 22.8008C21.6357 22.8003 21.6357 22.7998 21.6357 22.7993C21.6357 22.7988 21.6357 22.7983 21.6357 22.7978C21.6357 22.7973 21.6357 22.7968 21.6357 22.7963C21.6357 22.7958 21.6357 22.7953 21.6357 22.7948C21.6357 22.7943 21.6357 22.7938 21.6357 22.7933C21.6357 22.7928 21.6357 22.7923 21.6357 22.7918C21.6357 22.7913 21.6357 22.7908 21.6357 22.7903C21.6357 22.7898 21.6357 22.7893 21.6357 22.7888C21.6357 22.7883 21.6357 22.7878 21.6357 22.7873C21.6357 22.7868 21.6357 22.7863 21.6357 22.7858C21.6357 22.7853 21.6357 22.7848 21.6357 22.7843C21.6357 22.7838 21.6357 22.7833 21.6357 22.7828C21.6357 22.7823 21.6357 22.7818 21.6357 22.7813C21.6357 22.7808 21.6357 22.7803 21.6357 22.7798C21.6357 22.7793 21.6357 22.7788 21.6357 22.7783C21.6357 22.7778 21.6357 22.7773 21.6357 22.7768C21.6357 22.7763 21.6357 22.7758 21.6357 22.7753C21.6357 22.7748 21.6357 22.7743 21.6357 22.7738C21.6357 22.7733 21.6357 22.7728 21.6357 22.7723C21.6357 22.7718 21.6357 22.7713 21.6357 22.7708C21.6357 22.7703 21.6357 22.7698 21.6357 22.7693C21.6357 22.7688 21.6357 22.7683 21.6357 22.7678C21.6357 22.7673 21.6357 22.7668 21.6357 22.7663C21.6357 22.7658 21.6357 22.7654 21.6357 22.7649C21.6357 22.7644 21.6357 22.7639 21.6357 22.7634C21.6357 22.7629 21.6357 22.7624 21.6357 22.7619C21.6357 22.7614 21.6357 22.7609 21.6357 22.7604C21.6357 22.7599 21.6357 22.7594 21.6357 22.7589C21.6357 22.7584 21.6357 22.7579 21.6357 22.7574C21.6357 22.7569 21.6357 22.7564 21.6357 22.7559C21.6357 22.7555 21.6357 22.755 21.6357 22.7545C21.6357 22.754 21.6357 22.7535 21.6357 22.753C21.6357 22.7525 21.6357 22.752 21.6357 22.7515C21.6357 22.751 21.6357 22.7505 21.6357 22.75C21.6357 22.7495 21.6357 22.749 21.6357 22.7486C21.6357 22.7481 21.6357 22.7476 21.6357 22.7471C21.6357 22.7466 21.6357 22.7461 21.6357 22.7456C21.6357 22.7451 21.6357 22.7446 21.6357 22.7441C21.6357 22.7436 21.6357 22.7431 21.6357 22.7427C21.6357 22.7422 21.6357 22.7417 21.6357 22.7412C21.6357 22.7407 21.6357 22.7402 21.6357 22.7397C21.6357 22.7392 21.6357 22.7387 21.6357 22.7382C21.6357 22.7377 21.6357 22.7373 21.6357 22.7368C21.6357 22.7363 21.6357 22.7358 21.6357 22.7353C21.6357 22.7348 21.6357 22.7343 21.6357 22.7338C21.6357 22.7333 21.6357 22.7328 21.6357 22.7324C21.6357 22.7319 21.6357 22.7314 21.6357 22.7309C21.6357 22.7304 21.6357 22.7299 21.6357 22.7294C21.6357 22.7289 21.6357 22.7284 21.6357 22.728C21.6357 22.7275 21.6357 22.727 21.6357 22.7265C21.6357 22.726 21.6357 22.7255 21.6357 22.725C21.6357 22.7245 21.6357 22.7241 21.6357 22.7236C21.6357 22.7231 21.6357 22.7226 21.6357 22.7221C21.6357 22.7216 21.6357 22.7211 21.6357 22.7206C21.6357 22.7202 21.6357 22.7197 21.6357 22.7192C21.6357 22.7187 21.6357 22.7182 21.6357 22.7177C21.6357 22.7172 21.6357 22.7168 21.6357 22.7163C21.6357 22.7158 21.6357 22.7153 21.6357 22.7148C21.6357 22.7143 21.6357 22.7138 21.6357 22.7134C21.6357 22.7129 21.6357 22.7124 21.6357 22.7119C21.6357 22.7114 21.6357 22.7109 21.6357 22.7104C21.6357 22.71 21.6357 22.7095 21.6357 22.709C21.6357 22.7085 21.6357 22.708 21.6357 22.7075C21.6357 22.7071 21.6357 22.7066 21.6357 22.7061C21.6357 22.7056 21.6357 22.7051 21.6357 22.7046C21.6357 22.7042 21.6357 22.7037 21.6357 22.7032C21.6357 22.7027 21.6357 22.7022 21.6357 22.7017C21.6357 22.7013 21.6357 22.7008 21.6357 22.7003C21.6357 22.6998 21.6357 22.6993 21.6357 22.6988C21.6357 22.6984 21.6357 22.6979 21.6357 22.6974C21.6357 22.6969 21.6357 22.6964 21.6357 22.696C21.6357 22.6955 21.6357 22.695 21.6357 22.6945C21.6357 22.694 21.6357 22.6935 21.6357 22.6931C21.6357 22.6926 21.6357 22.6921 21.6357 22.6916C21.6357 22.6911 21.6357 22.6907 21.6357 22.6902C21.6357 22.6897 21.6357 22.6892 21.6357 22.6887C21.6357 22.6883 21.6357 22.6878 21.6357 22.6873C21.6357 22.6868 21.6357 22.6863 21.6357 22.6859C21.6357 22.6854 21.6357 22.6849 21.6357 22.6844C21.6357 22.6839 21.6357 22.6835 21.6357 22.683C21.6357 22.6825 21.6357 22.682 21.6357 22.6815C21.6357 22.6811 21.6357 22.6806 21.6357 22.6801C21.6357 22.6796 21.6357 22.6792 21.6357 22.6787C21.6357 22.6782 21.6357 22.6777 21.6357 22.6772C21.6357 22.6768 21.6357 22.6763 21.6357 22.6758C21.6357 22.6753 21.6357 22.6749 21.6357 22.6744C21.6357 22.6739 21.6357 22.6734 21.6357 22.6729C21.6357 22.6725 21.6357 22.672 21.6357 22.6715C21.6357 22.671 21.6357 22.6706 21.6357 22.6701C21.6357 22.6696 21.6357 22.6691 21.6357 22.6687C21.6357 22.6682 21.6357 22.6677 21.6357 22.6672C21.6357 22.6668 21.6357 22.6663 21.6357 22.6658C21.6357 22.6653 21.6357 22.6649 21.6357 22.6644C21.6357 22.6639 21.6357 22.6634 21.6357 22.663C21.6357 22.6625 21.6357 22.662 21.6357 22.6615C21.6357 22.6611 21.6357 22.6606 21.6357 22.6601C21.6357 22.6596 21.6357 22.6592 21.6357 22.6587C21.6357 22.6582 21.6357 22.6577 21.6357 22.6573C21.6357 22.6568 21.6357 22.6563 21.6357 22.6558C21.6357 22.6554 21.6357 22.6549 21.6357 22.6544C21.6357 22.6539 21.6357 22.6535 21.6357 22.653C21.6357 22.6525 21.6357 22.6521 21.6357 22.6516C21.6357 22.6511 21.6357 22.6506 21.6357 22.6502C21.6357 22.6497 21.6357 22.6492 21.6357 22.6487C21.6357 22.6483 21.6357 22.6478 21.6357 22.6473C21.6357 22.6469 21.6357 22.6464 21.6357 22.6459C21.6357 22.6454 21.6357 22.645 21.6357 22.6445C21.6357 22.644 21.6357 22.6436 21.6357 22.6431C21.6357 22.6426 21.6357 22.6421 21.6357 22.6417C21.6357 22.6412 21.6357 22.6407 21.6357 22.6403C21.6357 22.6398 21.6357 22.6393 21.6357 22.6389C21.6357 22.6384 21.6357 22.6379 21.6357 22.6374C21.6357 22.637 21.6357 22.6365 21.6357 22.636C21.6357 22.6356 21.6357 22.6351 21.6357 22.6346C21.6357 22.6342 21.6357 22.6337 21.6357 22.6332C21.6357 22.6328 21.6357 22.6323 21.6357 22.6318C21.6357 22.6314 21.6357 22.6309 21.6357 22.6304C21.6357 22.6299 21.6357 22.6295 21.6357 22.629C21.6357 22.6285 21.6357 22.6281 21.6357 22.6276C21.6357 22.6271 21.6357 22.6267 21.6357 22.6262C21.6357 22.6257 21.6357 22.6253 21.6357 22.6248C21.6357 22.6243 21.6357 22.6239 21.6357 22.6234C21.6357 22.6229 21.6357 22.6225 21.6357 22.622C21.6357 22.6215 21.6357 22.6211 21.6357 22.6206C21.6357 22.6201 21.6357 22.6197 21.6357 22.6192C21.6357 22.6187 21.6357 22.6183 21.6357 22.6178C21.6357 22.6173 21.6357 22.6169 21.6357 22.6164C21.6357 22.616 21.6357 22.6155 21.6357 22.615C21.6357 22.6146 21.6357 22.6141 21.6357 22.6136C21.6357 22.6132 21.6357 22.6127 21.6357 22.6122C21.6357 22.6118 21.6357 22.6113 21.6357 22.6108C21.6357 22.6104 21.6357 22.6099 21.6357 22.6095C21.6357 22.609 21.6357 22.6085 21.6357 22.6081C21.6357 22.6076 21.6357 22.6071 21.6357 22.6067C21.6357 22.6062 21.6357 22.6057 21.6357 22.6053C21.6357 22.6048 21.6357 22.6044 21.6357 22.6039C21.6357 22.6034 21.6357 22.603 21.6357 22.6025C21.6357 22.602 21.6357 22.6016 21.6357 22.6011C21.6357 22.6007 21.6357 22.6002 21.6357 22.5997C21.6357 22.5993 21.6357 22.5988 21.6357 22.5984C21.6357 22.5979 21.6357 22.5974 21.6357 22.597C21.6357 22.5965 21.6357 22.596 21.6357 22.5956C21.6357 22.5951 21.6357 22.5947 21.6357 22.5942C21.6357 22.5937 21.6357 22.5933 21.6357 22.5928C21.6357 22.5924 21.6357 22.5919 21.6357 22.5914C21.6357 22.591 21.6357 22.5905 21.6357 22.5901C21.6357 22.5896 21.6357 22.5891 21.6357 22.5887C21.6357 22.5882 21.6357 22.5878 21.6357 22.5873C21.6357 22.5868 21.6357 22.5864 21.6357 22.5859C21.6357 22.5855 21.6357 22.585 21.6357 22.5846C21.6357 22.5841 21.6357 22.5836 21.6357 22.5832C21.6357 22.5827 21.6357 22.5823 21.6357 22.5818C21.6357 22.5813 21.6357 22.5809 21.6357 22.5804C21.6357 22.58 21.6357 22.5795 21.6357 22.5791C21.6357 22.5786 21.6357 22.5781 21.6357 22.5777C21.6357 22.5772 21.6357 22.5768 21.6357 22.5763C21.6357 22.5759 21.6357 22.5754 21.6357 22.575C21.6357 22.5745 21.6357 22.574 21.6357 22.5736C21.6357 22.5731 21.6357 22.5727 21.6357 22.5722C21.6357 22.5718 21.6357 22.5713 21.6357 22.5708C21.6357 22.5704 21.6357 22.5699 21.6357 22.5695C21.6357 22.569 21.6357 22.5686 21.6357 22.5681C21.6357 22.5677 21.6357 22.5672 21.6357 22.5668C21.6357 22.5663 21.6357 22.5658 21.6357 22.5654C21.6357 22.5649 21.6357 22.5645 21.6357 22.564C21.6357 22.5636 21.6357 22.5631 21.6357 22.5627C21.6357 22.5622 21.6357 22.5618 21.6357 22.5613C21.6357 22.5609 21.6357 22.5604 21.6357 22.5599C21.6357 22.5595 21.6357 22.559 21.6357 22.5586C21.6357 22.5581 21.6357 22.5577 21.6357 22.5572C21.6357 22.5568 21.6357 22.5563 21.6357 22.5559C21.6357 22.5554 21.6357 22.555 21.6357 22.5545C21.6357 22.5541 21.6357 22.5536 21.6357 22.5532C21.6357 22.5527 21.6357 22.5523 21.6357 22.5518C21.6357 22.5514 21.6357 22.5509 21.6357 22.5505C21.6357 22.55 21.6357 22.5496 21.6357 22.5491C21.6357 22.5487 21.6357 22.5482 21.6357 22.5478C21.6357 22.5473 21.6357 22.5469 21.6357 22.5464C21.6357 22.5459 21.6357 22.5455 21.6357 22.5451C21.6357 22.5446 21.6357 22.5442 21.6357 22.5437C21.6357 22.5433 21.6357 22.5428 21.6357 22.5424C21.6357 22.5419 21.6357 22.5415 21.6357 22.541C21.6357 22.5406 21.6357 22.5401 21.6357 22.5397C21.6357 22.5392 21.6357 22.5388 21.6357 22.5383C21.6357 22.5379 21.6357 22.5374 21.6357 22.537C21.6357 22.5365 21.6357 22.5361 21.6357 22.5356C21.6357 22.5352 21.6357 22.5347 21.6357 22.5343C21.6357 22.5338 21.6357 22.5334 21.6357 22.5329C21.6357 22.5325 21.6357 22.532 21.6357 22.5316C21.6357 22.5312 21.6357 22.5307 21.6357 22.5303C21.6357 22.5298 21.6357 22.5294 21.6357 22.5289C21.6357 22.5285 21.6357 22.528 21.6357 22.5276C21.6357 22.5271 21.6357 22.5267 21.6357 22.5262C21.6357 22.5258 21.6357 22.5254 21.6357 22.5249C21.6357 22.5245 21.6357 22.524 21.6357 22.5236C21.6357 22.5231 21.6357 22.5227 21.6357 22.5222C21.6357 22.5218 21.6357 22.5213 21.6357 22.5209C21.6357 22.5205 21.6357 22.52 21.6357 22.5196C21.6357 22.5191 21.6357 22.5187 21.6357 22.5182C21.6357 22.5178 21.6357 22.5174 21.6357 22.5169C21.6357 22.5165 21.6357 22.516 21.6357 22.5156C21.6357 22.5151 21.6357 22.5147 21.6357 22.5142C21.6357 22.5138 21.6357 22.5134 21.6357 22.5129C21.6357 22.5125 21.6357 22.512 21.6357 22.5116C21.6357 22.5112 21.6357 22.5107 21.6357 22.5103C21.6357 22.5098 21.6357 22.5094 21.6357 22.5089C21.6357 22.5085 21.6357 22.5081 21.6357 22.5076C21.6357 22.5072 21.6357 22.5067 21.6357 22.5063C21.6357 22.5058 21.6357 22.5054 21.6357 22.505C21.6357 22.5045 21.6357 22.5041 21.6357 22.5036C21.6357 22.5032 21.6357 22.5028 21.6357 22.5023C21.6357 22.5019 21.6357 22.5014 21.6357 22.501C21.6357 22.5006 21.6357 22.5001 21.6357 22.4997C21.6357 22.4992 21.6357 22.4988 21.6357 22.4984C21.6357 22.4979 21.6357 22.4975 21.6357 22.497C21.6357 22.4966 21.6357 22.4962 21.6357 22.4957C21.6357 22.4953 21.6357 22.4949 21.6357 22.4944C21.6357 22.494 21.6357 22.4935 21.6357 22.4931C21.6357 22.4927 21.6357 22.4922 21.6357 22.4918C21.6357 22.4913 21.6357 22.4909 21.6357 22.4905C21.6357 22.49 21.6357 22.4896 21.6357 22.4892C21.6357 22.4887 21.6357 22.4883 21.6357 22.4878C21.6357 22.4874 21.6357 22.487 21.6357 22.4865C21.6357 22.4861 21.6357 22.4857 21.6357 22.4852C21.6357 22.4848 21.6357 22.4844 21.6357 22.4839C21.6357 22.4835 21.6357 22.483 21.6357 22.4826C21.6357 22.4822 21.6357 22.4817 21.6357 22.4813C21.6357 22.4809 21.6357 22.4804 21.6357 22.48C21.6357 22.4796 21.6357 22.4791 21.6357 22.4787C21.6357 22.4783 21.6357 22.4778 21.6357 22.4774C21.6357 22.4769 21.6357 22.4765 21.6357 22.4761C21.6357 22.4756 21.6357 22.4752 21.6357 22.4748C21.6357 22.4743 21.6357 22.4739 21.6357 22.4735C21.6357 22.473 21.6357 22.4726 21.6357 22.4722C21.6357 22.4717 21.6357 22.4713 21.6357 22.4709C21.6357 22.4704 21.6357 22.47 21.6357 22.4696C21.6357 22.4691 21.6357 22.4687 21.6357 22.4683C21.6357 22.4678 21.6357 22.4674 21.6357 22.467C21.6357 22.4665 21.6357 22.4661 21.6357 22.4657C21.6357 22.4653 21.6357 22.4648 21.6357 22.4644C21.6357 22.464 21.6357 22.4635 21.6357 22.4631C21.6357 22.4627 21.6357 22.4622 21.6357 22.4618C21.6357 22.4614 21.6357 22.4609 21.6357 22.4605C21.6357 22.4601 21.6357 22.4596 21.6357 22.4592C21.6357 22.4588 21.6357 22.4584 21.6357 22.4579C21.6357 22.4575 21.6357 22.4571 21.6357 22.4566C21.6357 22.4562 21.6357 22.4558 21.6357 22.4553C21.6357 22.4549 21.6357 22.4545 21.6357 22.4541C21.6357 22.4536 21.6357 22.4532 21.6357 22.4528C21.6357 22.4523 21.6357 22.4519 21.6357 22.4515C21.6357 22.451 21.6357 22.4506 21.6357 22.4502C21.6357 22.4498 21.6357 22.4493 21.6357 22.4489C21.6357 22.4485 21.6357 22.4481 21.6357 22.4476C21.6357 22.4472 21.6357 22.4468 21.6357 22.4463C21.6357 22.4459 21.6357 22.4455 21.6357 22.4451C21.6357 22.4446 21.6357 22.4442 21.6357 22.4438C21.6357 22.4433 21.6357 22.4429 21.6357 22.4425C21.6357 22.4421 21.6357 22.4416 21.6357 22.4412C21.6357 22.4408 21.6357 22.4404 21.6357 22.4399C21.6357 22.4395 21.6357 22.4391 21.6357 22.4387C21.6357 22.4382 21.6357 22.4378 21.6357 22.4374C21.6357 22.437 21.6357 22.4365 21.6357 22.4361C21.6357 22.4357 21.6357 22.4353 21.6357 22.4348C21.6357 22.4344 21.6357 22.434 21.6357 22.4336C21.6357 22.4331 21.6357 22.4327 21.6357 22.4323C21.6357 22.4319 21.6357 22.4314 21.6357 22.431C21.6357 22.4306 21.6357 22.4302 21.6357 22.4297C21.6357 22.4293 21.6357 22.4289 21.6357 22.4285C21.6357 22.428 21.6357 22.4276 21.6357 22.4272C21.6357 22.4268 21.6357 22.4264 21.6357 22.4259C21.6357 22.4255 21.6357 22.4251 21.6357 22.4247C21.6357 22.4242 21.6357 22.4238 21.6357 22.4234C21.6357 22.423 21.6357 22.4225 21.6357 22.4221C21.6357 22.4217 21.6357 22.4213 21.6357 22.4209C21.6357 22.4204 21.6357 22.42 21.6357 22.4196C21.6357 22.4192 21.6357 22.4188 21.6357 22.4183C21.6357 22.4179 21.6357 22.4175 21.6357 22.4171C21.6357 22.4166 21.6357 22.4162 21.6357 22.4158C21.6357 22.4154 21.6357 22.415 21.6357 22.4145C21.6357 22.4141 21.6357 22.4137 21.6357 22.4133C21.6357 22.4129 21.6357 22.4124 21.6357 22.412C21.6357 22.4116 21.6357 22.4112 21.6357 22.4108C21.6357 22.4103 21.6357 22.4099 21.6357 22.4095C21.6357 22.4091 21.6357 22.4087 21.6357 22.4083C21.6357 22.4078 21.6357 22.4074 21.6357 22.407C21.6357 22.4066 21.6357 22.4062 21.6357 22.4057C21.6357 22.4053 21.6357 22.4049 21.6357 22.4045C21.6357 22.4041 21.6357 22.4037 21.6357 22.4032C21.6357 22.4028 21.6357 22.4024 21.6357 22.402C21.6357 22.4016 21.6357 22.4011 21.6357 22.4007C21.6357 22.4003 21.6357 22.3999 21.6357 22.3995C21.6357 22.3991 21.6357 22.3986 21.6357 22.3982C21.6357 22.3978 21.6357 22.3974 21.6357 22.397C21.6357 22.3966 21.6357 22.3961 21.6357 22.3957C21.6357 22.3953 21.6357 22.3949 21.6357 22.3945C21.6357 22.3941 21.6357 22.3937 21.6357 22.3932C21.6357 22.3928 21.6357 22.3924 21.6357 22.392C21.6357 22.3916 21.6357 22.3912 21.6357 22.3908C21.6357 22.3903 21.6357 22.3899 21.6357 22.3895C21.6357 22.3891 21.6357 22.3887 21.6357 22.3883C21.6357 22.3879 21.6357 22.3874 21.6357 22.387C21.6357 22.3866 21.6357 22.3862 21.6357 22.3858C21.6357 22.3854 21.6357 22.385 21.6357 22.3845C21.6357 22.3841 21.6357 22.3837 21.6357 22.3833C21.6357 22.3829 21.6357 22.3825 21.6357 22.3821C21.6357 22.3817 21.6357 22.3812 21.6357 22.3808C21.6357 22.3804 21.6357 22.38 21.6357 22.3796C21.6357 22.3792 21.6357 22.3788 21.6357 22.3784C21.6357 22.3779 21.6357 22.3775 21.6357 22.3771C21.6357 22.3767 21.6357 22.3763 21.6357 22.3759C21.6357 22.3755 21.6357 22.3751 21.6357 22.3747C21.6357 22.3742 21.6357 22.3738 21.6357 22.3734C21.6357 22.373 21.6357 22.3726 21.6357 22.3722C21.6357 22.3718 21.6357 22.3714 21.6357 22.371C21.6357 22.3706 21.6357 22.3701 21.6357 22.3697C21.6357 22.3693 21.6357 22.3689 21.6357 22.3685C21.6357 22.3681 21.6357 22.3677 21.6357 22.3673C21.6357 22.3669 21.6357 22.3665 21.6357 22.3661C21.6357 22.3656 21.6357 22.3652 21.6357 22.3648C21.6357 22.3644 21.6357 22.364 21.6357 22.3636C21.6357 22.3632 21.6357 22.3628 21.6357 22.3624C21.6357 22.362 21.6357 22.3616 21.6357 22.3612C21.6357 22.3607 21.6357 22.3603 21.6357 22.3599C21.6357 22.3595 21.6357 22.3591 21.6357 22.3587C21.6357 22.3583 21.6357 22.3579 21.6357 22.3575C21.6357 22.3571 21.6357 22.3567 21.6357 22.3563C21.6357 22.3559 21.6357 22.3555 21.6357 22.3551C21.6357 22.3546 21.6357 22.3542 21.6357 22.3538C21.6357 22.3534 21.6357 22.353 21.6357 22.3526C21.6357 22.3522 21.6357 22.3518 21.6357 22.3514C21.6357 22.351 21.6357 22.3506 21.6357 22.3502C21.6357 22.3498 21.6357 22.3494 21.6357 22.349C21.6357 22.3486 21.6357 22.3482 21.6357 22.3478C21.6357 22.3474 21.6357 22.347 21.6357 22.3465C21.6357 22.3461 21.6357 22.3457 21.6357 22.3453C21.6357 22.3449 21.6357 22.3445 21.6357 22.3441C21.6357 22.3437 21.6357 22.3433 21.6357 22.3429C21.6357 22.3425 21.6357 22.3421 21.6357 22.3417C21.6357 22.3413 21.6357 22.3409 21.6357 22.3405C21.6357 22.3401 21.6357 22.3397 21.6357 22.3393C21.6357 22.3389 21.6357 22.3385 21.6357 22.3381C21.6357 22.3377 21.6357 22.3373 21.6357 22.3369C21.6357 22.3365 21.6357 22.3361 21.6357 22.3357C21.6357 22.3353 21.6357 22.3349 21.6357 22.3345C21.6357 22.3341 21.6357 22.3337 21.6357 22.3333C21.6357 22.3329 21.6357 22.3325 21.6357 22.3321C21.6357 22.3317 21.6357 22.3313 21.6357 22.3309C21.6357 22.3305 21.6357 22.3301 21.6357 22.3297C21.6357 22.3293 21.6357 22.3289 21.6357 22.3285C21.6357 22.3281 21.6357 22.3277 21.6357 22.3273C21.6357 22.3269 21.6357 22.3265 21.6357 22.3261C21.6357 22.3257 21.6357 22.3253 21.6357 22.3249C21.6357 22.3245 21.6357 22.3241 21.6357 22.3237C21.6357 22.3233 21.6357 22.3229 21.6357 22.3225C21.6357 22.3221 21.6357 22.3217 21.6357 22.3213C21.6357 22.3209 21.6357 22.3205 21.6357 22.3201C21.6357 22.3197 21.6357 22.3193 21.6357 22.3189C21.6357 22.3185 21.6357 22.3181 21.6357 22.3177C21.6357 22.3173 21.6357 22.3169 21.6357 22.3165C21.6357 22.3161 21.6357 22.3157 21.6357 22.3153C21.6357 22.3149 21.6357 22.3145 21.6357 22.3141C21.6357 22.3138 21.6357 22.3134 21.6357 22.313C21.6357 22.3126 21.6357 22.3122 21.6357 22.3118C21.6357 22.3114 21.6357 22.311 21.6357 22.3106C21.6357 22.3102 21.6357 22.3098 21.6357 22.3094C21.6357 22.309 21.6357 22.3086 21.6357 22.3082C21.6357 22.3078 21.6357 22.3074 21.6357 22.307C21.6357 22.3066 21.6357 22.3062 21.6357 22.3059C21.6357 22.3055 21.6357 22.3051 21.6357 22.3047C21.6357 22.3043 21.6357 22.3039 21.6357 22.3035C21.6357 22.3031 21.6357 22.3027 21.6357 22.3023C21.6357 22.3019 21.6357 22.3015 21.6357 22.3011C21.6357 22.3007 21.6357 22.3003 21.6357 22.3C21.6357 22.2996 21.6357 22.2992 21.6357 22.2988C21.6357 22.2984 21.6357 22.298 21.6357 22.2976C21.6357 22.2972 21.6357 22.2968 21.6357 22.2964C21.6357 22.296 21.6357 22.2956 21.6357 22.2953C21.6357 22.2949 21.6357 22.2945 21.6357 22.2941C21.6357 22.2937 21.6357 22.2933 21.6357 22.2929C21.6357 22.2925 21.6357 22.2921 21.6357 22.2917C21.6357 22.2913 21.6357 22.291 21.6357 22.2906C21.6357 22.2902 21.6357 22.2898 21.6357 22.2894C21.6357 22.289 21.6357 22.2886 21.6357 22.2882C21.6357 22.2878 21.6357 22.2874 21.6357 22.2871C21.6357 22.2867 21.6357 22.2863 21.6357 22.2859C21.6357 22.2855 21.6357 22.2851 21.6357 22.2847C21.6357 22.2843 21.6357 22.2839 21.6357 22.2836C21.6357 22.2832 21.6357 22.2828 21.6357 22.2824C21.6357 22.282 21.6357 22.2816 21.6357 22.2812C21.6357 22.2808 21.6357 22.2805 21.6357 22.2801C21.6357 22.2797 21.6357 22.2793 21.6357 22.2789C21.6357 22.2785 21.6357 22.2781 21.6357 22.2777C21.6357 22.2774 21.6357 22.277 21.6357 22.2766C21.6357 22.2762 21.6357 22.2758 21.6357 22.2754C21.6357 22.275 21.6357 22.2747 21.6357 22.2743C21.6357 22.2739 21.6357 22.2735 21.6357 22.2731C21.6357 22.2727 21.6357 22.2723 21.6357 22.272C21.6357 22.2716 21.6357 22.2712 21.6357 22.2708C21.6357 22.2704 21.6357 22.27 21.6357 22.2696C21.6357 22.2693 21.6357 22.2689 21.6357 22.2685C21.6357 22.2681 21.6357 22.2677 21.6357 22.2673C21.6357 22.267 21.6357 22.2666 21.6357 22.2662C21.6357 22.2658 21.6357 22.2654 21.6357 22.265C21.6357 22.2646 21.6357 22.2643 21.6357 22.2639C21.6357 22.2635 21.6357 22.2631 21.6357 22.2627C21.6357 22.2623 21.6357 22.262 21.6357 22.2616C21.6357 22.2612 21.6357 22.2608 21.6357 22.2604C21.6357 22.2601 21.6357 22.2597 21.6357 22.2593C21.6357 22.2589 21.6357 22.2585 21.6357 22.2581C21.6357 22.2578 21.6357 22.2574 21.6357 22.257C21.6357 22.2566 21.6357 22.2562 21.6357 22.2559C21.6357 22.2555 21.6357 22.2551 21.6357 22.2547C21.6357 22.2543 21.6357 22.2539 21.6357 22.2536C21.6357 22.2532 21.6357 22.2528 21.6357 22.2524C21.6357 22.252 21.6357 22.2517 21.6357 22.2513C21.6357 22.2509 21.6357 22.2505 21.6357 22.2501C21.6357 22.2498 21.6357 22.2494 21.6357 22.249C21.6357 22.2486 21.6357 22.2482 21.6357 22.2479C21.6357 22.2475 21.6357 22.2471 21.6357 22.2467C21.6357 22.2464 21.6357 22.246 21.6357 22.2456C21.6357 22.2452 21.6357 22.2448 21.6357 22.2445C21.6357 22.2441 21.6357 22.2437 21.6357 22.2433C21.6357 22.2429 21.6357 22.2426 21.6357 22.2422C21.6357 22.2418 21.6357 22.2414 21.6357 22.2411C21.6357 22.2407 21.6357 22.2403 21.6357 22.2399C21.6357 22.2396 21.6357 22.2392 21.6357 22.2388C21.6357 22.2384 21.6357 22.238 21.6357 22.2377C21.6357 22.2373 21.6357 22.2369 21.6357 22.2365C21.6357 22.2362 21.6357 22.2358 21.6357 22.2354C21.6357 22.235 21.6357 22.2347 21.6357 22.2343C21.6357 22.2339 21.6357 22.2335 21.6357 22.2332C21.6357 22.2328 21.6357 22.2324 21.6357 22.232C21.6357 22.2317 21.6357 22.2313 21.6357 22.2309C21.6357 22.2305 21.6357 22.2302 21.6357 22.2298C21.6357 22.2294 21.6357 22.229 21.6357 22.2287C21.6357 22.2283 21.6357 22.2279 21.6357 22.2275H19.6357C19.6357 22.2279 19.6357 22.2283 19.6357 22.2287C19.6357 22.229 19.6357 22.2294 19.6357 22.2298C19.6357 22.2302 19.6357 22.2305 19.6357 22.2309C19.6357 22.2313 19.6357 22.2317 19.6357 22.232C19.6357 22.2324 19.6357 22.2328 19.6357 22.2332C19.6357 22.2335 19.6357 22.2339 19.6357 22.2343C19.6357 22.2347 19.6357 22.235 19.6357 22.2354C19.6357 22.2358 19.6357 22.2362 19.6357 22.2365C19.6357 22.2369 19.6357 22.2373 19.6357 22.2377C19.6357 22.238 19.6357 22.2384 19.6357 22.2388C19.6357 22.2392 19.6357 22.2396 19.6357 22.2399C19.6357 22.2403 19.6357 22.2407 19.6357 22.2411C19.6357 22.2414 19.6357 22.2418 19.6357 22.2422C19.6357 22.2426 19.6357 22.2429 19.6357 22.2433C19.6357 22.2437 19.6357 22.2441 19.6357 22.2445C19.6357 22.2448 19.6357 22.2452 19.6357 22.2456C19.6357 22.246 19.6357 22.2464 19.6357 22.2467C19.6357 22.2471 19.6357 22.2475 19.6357 22.2479C19.6357 22.2482 19.6357 22.2486 19.6357 22.249C19.6357 22.2494 19.6357 22.2498 19.6357 22.2501C19.6357 22.2505 19.6357 22.2509 19.6357 22.2513C19.6357 22.2517 19.6357 22.252 19.6357 22.2524C19.6357 22.2528 19.6357 22.2532 19.6357 22.2536C19.6357 22.2539 19.6357 22.2543 19.6357 22.2547C19.6357 22.2551 19.6357 22.2555 19.6357 22.2559C19.6357 22.2562 19.6357 22.2566 19.6357 22.257C19.6357 22.2574 19.6357 22.2578 19.6357 22.2581C19.6357 22.2585 19.6357 22.2589 19.6357 22.2593C19.6357 22.2597 19.6357 22.2601 19.6357 22.2604C19.6357 22.2608 19.6357 22.2612 19.6357 22.2616C19.6357 22.262 19.6357 22.2623 19.6357 22.2627C19.6357 22.2631 19.6357 22.2635 19.6357 22.2639C19.6357 22.2643 19.6357 22.2646 19.6357 22.265C19.6357 22.2654 19.6357 22.2658 19.6357 22.2662C19.6357 22.2666 19.6357 22.267 19.6357 22.2673C19.6357 22.2677 19.6357 22.2681 19.6357 22.2685C19.6357 22.2689 19.6357 22.2693 19.6357 22.2696C19.6357 22.27 19.6357 22.2704 19.6357 22.2708C19.6357 22.2712 19.6357 22.2716 19.6357 22.272C19.6357 22.2723 19.6357 22.2727 19.6357 22.2731C19.6357 22.2735 19.6357 22.2739 19.6357 22.2743C19.6357 22.2747 19.6357 22.275 19.6357 22.2754C19.6357 22.2758 19.6357 22.2762 19.6357 22.2766C19.6357 22.277 19.6357 22.2774 19.6357 22.2777C19.6357 22.2781 19.6357 22.2785 19.6357 22.2789C19.6357 22.2793 19.6357 22.2797 19.6357 22.2801C19.6357 22.2805 19.6357 22.2808 19.6357 22.2812C19.6357 22.2816 19.6357 22.282 19.6357 22.2824C19.6357 22.2828 19.6357 22.2832 19.6357 22.2836C19.6357 22.2839 19.6357 22.2843 19.6357 22.2847C19.6357 22.2851 19.6357 22.2855 19.6357 22.2859C19.6357 22.2863 19.6357 22.2867 19.6357 22.2871C19.6357 22.2874 19.6357 22.2878 19.6357 22.2882C19.6357 22.2886 19.6357 22.289 19.6357 22.2894C19.6357 22.2898 19.6357 22.2902 19.6357 22.2906C19.6357 22.291 19.6357 22.2913 19.6357 22.2917C19.6357 22.2921 19.6357 22.2925 19.6357 22.2929C19.6357 22.2933 19.6357 22.2937 19.6357 22.2941C19.6357 22.2945 19.6357 22.2949 19.6357 22.2953C19.6357 22.2956 19.6357 22.296 19.6357 22.2964C19.6357 22.2968 19.6357 22.2972 19.6357 22.2976C19.6357 22.298 19.6357 22.2984 19.6357 22.2988C19.6357 22.2992 19.6357 22.2996 19.6357 22.3C19.6357 22.3003 19.6357 22.3007 19.6357 22.3011C19.6357 22.3015 19.6357 22.3019 19.6357 22.3023C19.6357 22.3027 19.6357 22.3031 19.6357 22.3035C19.6357 22.3039 19.6357 22.3043 19.6357 22.3047C19.6357 22.3051 19.6357 22.3055 19.6357 22.3059C19.6357 22.3062 19.6357 22.3066 19.6357 22.307C19.6357 22.3074 19.6357 22.3078 19.6357 22.3082C19.6357 22.3086 19.6357 22.309 19.6357 22.3094C19.6357 22.3098 19.6357 22.3102 19.6357 22.3106C19.6357 22.311 19.6357 22.3114 19.6357 22.3118C19.6357 22.3122 19.6357 22.3126 19.6357 22.313C19.6357 22.3134 19.6357 22.3138 19.6357 22.3141C19.6357 22.3145 19.6357 22.3149 19.6357 22.3153C19.6357 22.3157 19.6357 22.3161 19.6357 22.3165C19.6357 22.3169 19.6357 22.3173 19.6357 22.3177C19.6357 22.3181 19.6357 22.3185 19.6357 22.3189C19.6357 22.3193 19.6357 22.3197 19.6357 22.3201C19.6357 22.3205 19.6357 22.3209 19.6357 22.3213C19.6357 22.3217 19.6357 22.3221 19.6357 22.3225C19.6357 22.3229 19.6357 22.3233 19.6357 22.3237C19.6357 22.3241 19.6357 22.3245 19.6357 22.3249C19.6357 22.3253 19.6357 22.3257 19.6357 22.3261C19.6357 22.3265 19.6357 22.3269 19.6357 22.3273C19.6357 22.3277 19.6357 22.3281 19.6357 22.3285C19.6357 22.3289 19.6357 22.3293 19.6357 22.3297C19.6357 22.3301 19.6357 22.3305 19.6357 22.3309C19.6357 22.3313 19.6357 22.3317 19.6357 22.3321C19.6357 22.3325 19.6357 22.3329 19.6357 22.3333C19.6357 22.3337 19.6357 22.3341 19.6357 22.3345C19.6357 22.3349 19.6357 22.3353 19.6357 22.3357C19.6357 22.3361 19.6357 22.3365 19.6357 22.3369C19.6357 22.3373 19.6357 22.3377 19.6357 22.3381C19.6357 22.3385 19.6357 22.3389 19.6357 22.3393C19.6357 22.3397 19.6357 22.3401 19.6357 22.3405C19.6357 22.3409 19.6357 22.3413 19.6357 22.3417C19.6357 22.3421 19.6357 22.3425 19.6357 22.3429C19.6357 22.3433 19.6357 22.3437 19.6357 22.3441C19.6357 22.3445 19.6357 22.3449 19.6357 22.3453C19.6357 22.3457 19.6357 22.3461 19.6357 22.3465C19.6357 22.347 19.6357 22.3474 19.6357 22.3478C19.6357 22.3482 19.6357 22.3486 19.6357 22.349C19.6357 22.3494 19.6357 22.3498 19.6357 22.3502C19.6357 22.3506 19.6357 22.351 19.6357 22.3514C19.6357 22.3518 19.6357 22.3522 19.6357 22.3526C19.6357 22.353 19.6357 22.3534 19.6357 22.3538C19.6357 22.3542 19.6357 22.3546 19.6357 22.3551C19.6357 22.3555 19.6357 22.3559 19.6357 22.3563C19.6357 22.3567 19.6357 22.3571 19.6357 22.3575C19.6357 22.3579 19.6357 22.3583 19.6357 22.3587C19.6357 22.3591 19.6357 22.3595 19.6357 22.3599C19.6357 22.3603 19.6357 22.3607 19.6357 22.3612C19.6357 22.3616 19.6357 22.362 19.6357 22.3624C19.6357 22.3628 19.6357 22.3632 19.6357 22.3636C19.6357 22.364 19.6357 22.3644 19.6357 22.3648C19.6357 22.3652 19.6357 22.3656 19.6357 22.3661C19.6357 22.3665 19.6357 22.3669 19.6357 22.3673C19.6357 22.3677 19.6357 22.3681 19.6357 22.3685C19.6357 22.3689 19.6357 22.3693 19.6357 22.3697C19.6357 22.3701 19.6357 22.3706 19.6357 22.371C19.6357 22.3714 19.6357 22.3718 19.6357 22.3722C19.6357 22.3726 19.6357 22.373 19.6357 22.3734C19.6357 22.3738 19.6357 22.3742 19.6357 22.3747C19.6357 22.3751 19.6357 22.3755 19.6357 22.3759C19.6357 22.3763 19.6357 22.3767 19.6357 22.3771C19.6357 22.3775 19.6357 22.3779 19.6357 22.3784C19.6357 22.3788 19.6357 22.3792 19.6357 22.3796C19.6357 22.38 19.6357 22.3804 19.6357 22.3808C19.6357 22.3812 19.6357 22.3817 19.6357 22.3821C19.6357 22.3825 19.6357 22.3829 19.6357 22.3833C19.6357 22.3837 19.6357 22.3841 19.6357 22.3845C19.6357 22.385 19.6357 22.3854 19.6357 22.3858C19.6357 22.3862 19.6357 22.3866 19.6357 22.387C19.6357 22.3874 19.6357 22.3879 19.6357 22.3883C19.6357 22.3887 19.6357 22.3891 19.6357 22.3895C19.6357 22.3899 19.6357 22.3903 19.6357 22.3908C19.6357 22.3912 19.6357 22.3916 19.6357 22.392C19.6357 22.3924 19.6357 22.3928 19.6357 22.3932C19.6357 22.3937 19.6357 22.3941 19.6357 22.3945C19.6357 22.3949 19.6357 22.3953 19.6357 22.3957C19.6357 22.3961 19.6357 22.3966 19.6357 22.397C19.6357 22.3974 19.6357 22.3978 19.6357 22.3982C19.6357 22.3986 19.6357 22.3991 19.6357 22.3995C19.6357 22.3999 19.6357 22.4003 19.6357 22.4007C19.6357 22.4011 19.6357 22.4016 19.6357 22.402C19.6357 22.4024 19.6357 22.4028 19.6357 22.4032C19.6357 22.4037 19.6357 22.4041 19.6357 22.4045C19.6357 22.4049 19.6357 22.4053 19.6357 22.4057C19.6357 22.4062 19.6357 22.4066 19.6357 22.407C19.6357 22.4074 19.6357 22.4078 19.6357 22.4083C19.6357 22.4087 19.6357 22.4091 19.6357 22.4095C19.6357 22.4099 19.6357 22.4103 19.6357 22.4108C19.6357 22.4112 19.6357 22.4116 19.6357 22.412C19.6357 22.4124 19.6357 22.4129 19.6357 22.4133C19.6357 22.4137 19.6357 22.4141 19.6357 22.4145C19.6357 22.415 19.6357 22.4154 19.6357 22.4158C19.6357 22.4162 19.6357 22.4166 19.6357 22.4171C19.6357 22.4175 19.6357 22.4179 19.6357 22.4183C19.6357 22.4188 19.6357 22.4192 19.6357 22.4196C19.6357 22.42 19.6357 22.4204 19.6357 22.4209C19.6357 22.4213 19.6357 22.4217 19.6357 22.4221C19.6357 22.4225 19.6357 22.423 19.6357 22.4234C19.6357 22.4238 19.6357 22.4242 19.6357 22.4247C19.6357 22.4251 19.6357 22.4255 19.6357 22.4259C19.6357 22.4264 19.6357 22.4268 19.6357 22.4272C19.6357 22.4276 19.6357 22.428 19.6357 22.4285C19.6357 22.4289 19.6357 22.4293 19.6357 22.4297C19.6357 22.4302 19.6357 22.4306 19.6357 22.431C19.6357 22.4314 19.6357 22.4319 19.6357 22.4323C19.6357 22.4327 19.6357 22.4331 19.6357 22.4336C19.6357 22.434 19.6357 22.4344 19.6357 22.4348C19.6357 22.4353 19.6357 22.4357 19.6357 22.4361C19.6357 22.4365 19.6357 22.437 19.6357 22.4374C19.6357 22.4378 19.6357 22.4382 19.6357 22.4387C19.6357 22.4391 19.6357 22.4395 19.6357 22.4399C19.6357 22.4404 19.6357 22.4408 19.6357 22.4412C19.6357 22.4416 19.6357 22.4421 19.6357 22.4425C19.6357 22.4429 19.6357 22.4433 19.6357 22.4438C19.6357 22.4442 19.6357 22.4446 19.6357 22.4451C19.6357 22.4455 19.6357 22.4459 19.6357 22.4463C19.6357 22.4468 19.6357 22.4472 19.6357 22.4476C19.6357 22.4481 19.6357 22.4485 19.6357 22.4489C19.6357 22.4493 19.6357 22.4498 19.6357 22.4502C19.6357 22.4506 19.6357 22.451 19.6357 22.4515C19.6357 22.4519 19.6357 22.4523 19.6357 22.4528C19.6357 22.4532 19.6357 22.4536 19.6357 22.4541C19.6357 22.4545 19.6357 22.4549 19.6357 22.4553C19.6357 22.4558 19.6357 22.4562 19.6357 22.4566C19.6357 22.4571 19.6357 22.4575 19.6357 22.4579C19.6357 22.4584 19.6357 22.4588 19.6357 22.4592C19.6357 22.4596 19.6357 22.4601 19.6357 22.4605C19.6357 22.4609 19.6357 22.4614 19.6357 22.4618C19.6357 22.4622 19.6357 22.4627 19.6357 22.4631C19.6357 22.4635 19.6357 22.464 19.6357 22.4644C19.6357 22.4648 19.6357 22.4653 19.6357 22.4657C19.6357 22.4661 19.6357 22.4665 19.6357 22.467C19.6357 22.4674 19.6357 22.4678 19.6357 22.4683C19.6357 22.4687 19.6357 22.4691 19.6357 22.4696C19.6357 22.47 19.6357 22.4704 19.6357 22.4709C19.6357 22.4713 19.6357 22.4717 19.6357 22.4722C19.6357 22.4726 19.6357 22.473 19.6357 22.4735C19.6357 22.4739 19.6357 22.4743 19.6357 22.4748C19.6357 22.4752 19.6357 22.4756 19.6357 22.4761C19.6357 22.4765 19.6357 22.4769 19.6357 22.4774C19.6357 22.4778 19.6357 22.4783 19.6357 22.4787C19.6357 22.4791 19.6357 22.4796 19.6357 22.48C19.6357 22.4804 19.6357 22.4809 19.6357 22.4813C19.6357 22.4817 19.6357 22.4822 19.6357 22.4826C19.6357 22.483 19.6357 22.4835 19.6357 22.4839C19.6357 22.4844 19.6357 22.4848 19.6357 22.4852C19.6357 22.4857 19.6357 22.4861 19.6357 22.4865C19.6357 22.487 19.6357 22.4874 19.6357 22.4878C19.6357 22.4883 19.6357 22.4887 19.6357 22.4892C19.6357 22.4896 19.6357 22.49 19.6357 22.4905C19.6357 22.4909 19.6357 22.4913 19.6357 22.4918C19.6357 22.4922 19.6357 22.4927 19.6357 22.4931C19.6357 22.4935 19.6357 22.494 19.6357 22.4944C19.6357 22.4949 19.6357 22.4953 19.6357 22.4957C19.6357 22.4962 19.6357 22.4966 19.6357 22.497C19.6357 22.4975 19.6357 22.4979 19.6357 22.4984C19.6357 22.4988 19.6357 22.4992 19.6357 22.4997C19.6357 22.5001 19.6357 22.5006 19.6357 22.501C19.6357 22.5014 19.6357 22.5019 19.6357 22.5023C19.6357 22.5028 19.6357 22.5032 19.6357 22.5036C19.6357 22.5041 19.6357 22.5045 19.6357 22.505C19.6357 22.5054 19.6357 22.5058 19.6357 22.5063C19.6357 22.5067 19.6357 22.5072 19.6357 22.5076C19.6357 22.5081 19.6357 22.5085 19.6357 22.5089C19.6357 22.5094 19.6357 22.5098 19.6357 22.5103C19.6357 22.5107 19.6357 22.5112 19.6357 22.5116C19.6357 22.512 19.6357 22.5125 19.6357 22.5129C19.6357 22.5134 19.6357 22.5138 19.6357 22.5142C19.6357 22.5147 19.6357 22.5151 19.6357 22.5156C19.6357 22.516 19.6357 22.5165 19.6357 22.5169C19.6357 22.5174 19.6357 22.5178 19.6357 22.5182C19.6357 22.5187 19.6357 22.5191 19.6357 22.5196C19.6357 22.52 19.6357 22.5205 19.6357 22.5209C19.6357 22.5213 19.6357 22.5218 19.6357 22.5222C19.6357 22.5227 19.6357 22.5231 19.6357 22.5236C19.6357 22.524 19.6357 22.5245 19.6357 22.5249C19.6357 22.5254 19.6357 22.5258 19.6357 22.5262C19.6357 22.5267 19.6357 22.5271 19.6357 22.5276C19.6357 22.528 19.6357 22.5285 19.6357 22.5289C19.6357 22.5294 19.6357 22.5298 19.6357 22.5303C19.6357 22.5307 19.6357 22.5312 19.6357 22.5316C19.6357 22.532 19.6357 22.5325 19.6357 22.5329C19.6357 22.5334 19.6357 22.5338 19.6357 22.5343C19.6357 22.5347 19.6357 22.5352 19.6357 22.5356C19.6357 22.5361 19.6357 22.5365 19.6357 22.537C19.6357 22.5374 19.6357 22.5379 19.6357 22.5383C19.6357 22.5388 19.6357 22.5392 19.6357 22.5397C19.6357 22.5401 19.6357 22.5406 19.6357 22.541C19.6357 22.5415 19.6357 22.5419 19.6357 22.5424C19.6357 22.5428 19.6357 22.5433 19.6357 22.5437C19.6357 22.5442 19.6357 22.5446 19.6357 22.5451C19.6357 22.5455 19.6357 22.5459 19.6357 22.5464C19.6357 22.5469 19.6357 22.5473 19.6357 22.5478C19.6357 22.5482 19.6357 22.5487 19.6357 22.5491C19.6357 22.5496 19.6357 22.55 19.6357 22.5505C19.6357 22.5509 19.6357 22.5514 19.6357 22.5518C19.6357 22.5523 19.6357 22.5527 19.6357 22.5532C19.6357 22.5536 19.6357 22.5541 19.6357 22.5545C19.6357 22.555 19.6357 22.5554 19.6357 22.5559C19.6357 22.5563 19.6357 22.5568 19.6357 22.5572C19.6357 22.5577 19.6357 22.5581 19.6357 22.5586C19.6357 22.559 19.6357 22.5595 19.6357 22.5599C19.6357 22.5604 19.6357 22.5609 19.6357 22.5613C19.6357 22.5618 19.6357 22.5622 19.6357 22.5627C19.6357 22.5631 19.6357 22.5636 19.6357 22.564C19.6357 22.5645 19.6357 22.5649 19.6357 22.5654C19.6357 22.5658 19.6357 22.5663 19.6357 22.5668C19.6357 22.5672 19.6357 22.5677 19.6357 22.5681C19.6357 22.5686 19.6357 22.569 19.6357 22.5695C19.6357 22.5699 19.6357 22.5704 19.6357 22.5708C19.6357 22.5713 19.6357 22.5718 19.6357 22.5722C19.6357 22.5727 19.6357 22.5731 19.6357 22.5736C19.6357 22.574 19.6357 22.5745 19.6357 22.575C19.6357 22.5754 19.6357 22.5759 19.6357 22.5763C19.6357 22.5768 19.6357 22.5772 19.6357 22.5777C19.6357 22.5781 19.6357 22.5786 19.6357 22.5791C19.6357 22.5795 19.6357 22.58 19.6357 22.5804C19.6357 22.5809 19.6357 22.5813 19.6357 22.5818C19.6357 22.5823 19.6357 22.5827 19.6357 22.5832C19.6357 22.5836 19.6357 22.5841 19.6357 22.5846C19.6357 22.585 19.6357 22.5855 19.6357 22.5859C19.6357 22.5864 19.6357 22.5868 19.6357 22.5873C19.6357 22.5878 19.6357 22.5882 19.6357 22.5887C19.6357 22.5891 19.6357 22.5896 19.6357 22.5901C19.6357 22.5905 19.6357 22.591 19.6357 22.5914C19.6357 22.5919 19.6357 22.5924 19.6357 22.5928C19.6357 22.5933 19.6357 22.5937 19.6357 22.5942C19.6357 22.5947 19.6357 22.5951 19.6357 22.5956C19.6357 22.596 19.6357 22.5965 19.6357 22.597C19.6357 22.5974 19.6357 22.5979 19.6357 22.5984C19.6357 22.5988 19.6357 22.5993 19.6357 22.5997C19.6357 22.6002 19.6357 22.6007 19.6357 22.6011C19.6357 22.6016 19.6357 22.602 19.6357 22.6025C19.6357 22.603 19.6357 22.6034 19.6357 22.6039C19.6357 22.6044 19.6357 22.6048 19.6357 22.6053C19.6357 22.6057 19.6357 22.6062 19.6357 22.6067C19.6357 22.6071 19.6357 22.6076 19.6357 22.6081C19.6357 22.6085 19.6357 22.609 19.6357 22.6095C19.6357 22.6099 19.6357 22.6104 19.6357 22.6108C19.6357 22.6113 19.6357 22.6118 19.6357 22.6122C19.6357 22.6127 19.6357 22.6132 19.6357 22.6136C19.6357 22.6141 19.6357 22.6146 19.6357 22.615C19.6357 22.6155 19.6357 22.616 19.6357 22.6164C19.6357 22.6169 19.6357 22.6173 19.6357 22.6178C19.6357 22.6183 19.6357 22.6187 19.6357 22.6192C19.6357 22.6197 19.6357 22.6201 19.6357 22.6206C19.6357 22.6211 19.6357 22.6215 19.6357 22.622C19.6357 22.6225 19.6357 22.6229 19.6357 22.6234C19.6357 22.6239 19.6357 22.6243 19.6357 22.6248C19.6357 22.6253 19.6357 22.6257 19.6357 22.6262C19.6357 22.6267 19.6357 22.6271 19.6357 22.6276C19.6357 22.6281 19.6357 22.6285 19.6357 22.629C19.6357 22.6295 19.6357 22.6299 19.6357 22.6304C19.6357 22.6309 19.6357 22.6314 19.6357 22.6318C19.6357 22.6323 19.6357 22.6328 19.6357 22.6332C19.6357 22.6337 19.6357 22.6342 19.6357 22.6346C19.6357 22.6351 19.6357 22.6356 19.6357 22.636C19.6357 22.6365 19.6357 22.637 19.6357 22.6374C19.6357 22.6379 19.6357 22.6384 19.6357 22.6389C19.6357 22.6393 19.6357 22.6398 19.6357 22.6403C19.6357 22.6407 19.6357 22.6412 19.6357 22.6417C19.6357 22.6421 19.6357 22.6426 19.6357 22.6431C19.6357 22.6436 19.6357 22.644 19.6357 22.6445C19.6357 22.645 19.6357 22.6454 19.6357 22.6459C19.6357 22.6464 19.6357 22.6469 19.6357 22.6473C19.6357 22.6478 19.6357 22.6483 19.6357 22.6487C19.6357 22.6492 19.6357 22.6497 19.6357 22.6502C19.6357 22.6506 19.6357 22.6511 19.6357 22.6516C19.6357 22.6521 19.6357 22.6525 19.6357 22.653C19.6357 22.6535 19.6357 22.6539 19.6357 22.6544C19.6357 22.6549 19.6357 22.6554 19.6357 22.6558C19.6357 22.6563 19.6357 22.6568 19.6357 22.6573C19.6357 22.6577 19.6357 22.6582 19.6357 22.6587C19.6357 22.6592 19.6357 22.6596 19.6357 22.6601C19.6357 22.6606 19.6357 22.6611 19.6357 22.6615C19.6357 22.662 19.6357 22.6625 19.6357 22.663C19.6357 22.6634 19.6357 22.6639 19.6357 22.6644C19.6357 22.6649 19.6357 22.6653 19.6357 22.6658C19.6357 22.6663 19.6357 22.6668 19.6357 22.6672C19.6357 22.6677 19.6357 22.6682 19.6357 22.6687C19.6357 22.6691 19.6357 22.6696 19.6357 22.6701C19.6357 22.6706 19.6357 22.671 19.6357 22.6715C19.6357 22.672 19.6357 22.6725 19.6357 22.6729C19.6357 22.6734 19.6357 22.6739 19.6357 22.6744C19.6357 22.6749 19.6357 22.6753 19.6357 22.6758C19.6357 22.6763 19.6357 22.6768 19.6357 22.6772C19.6357 22.6777 19.6357 22.6782 19.6357 22.6787C19.6357 22.6792 19.6357 22.6796 19.6357 22.6801C19.6357 22.6806 19.6357 22.6811 19.6357 22.6815C19.6357 22.682 19.6357 22.6825 19.6357 22.683C19.6357 22.6835 19.6357 22.6839 19.6357 22.6844C19.6357 22.6849 19.6357 22.6854 19.6357 22.6859C19.6357 22.6863 19.6357 22.6868 19.6357 22.6873C19.6357 22.6878 19.6357 22.6883 19.6357 22.6887C19.6357 22.6892 19.6357 22.6897 19.6357 22.6902C19.6357 22.6907 19.6357 22.6911 19.6357 22.6916C19.6357 22.6921 19.6357 22.6926 19.6357 22.6931C19.6357 22.6935 19.6357 22.694 19.6357 22.6945C19.6357 22.695 19.6357 22.6955 19.6357 22.696C19.6357 22.6964 19.6357 22.6969 19.6357 22.6974C19.6357 22.6979 19.6357 22.6984 19.6357 22.6988C19.6357 22.6993 19.6357 22.6998 19.6357 22.7003C19.6357 22.7008 19.6357 22.7013 19.6357 22.7017C19.6357 22.7022 19.6357 22.7027 19.6357 22.7032C19.6357 22.7037 19.6357 22.7042 19.6357 22.7046C19.6357 22.7051 19.6357 22.7056 19.6357 22.7061C19.6357 22.7066 19.6357 22.7071 19.6357 22.7075C19.6357 22.708 19.6357 22.7085 19.6357 22.709C19.6357 22.7095 19.6357 22.71 19.6357 22.7104C19.6357 22.7109 19.6357 22.7114 19.6357 22.7119C19.6357 22.7124 19.6357 22.7129 19.6357 22.7134C19.6357 22.7138 19.6357 22.7143 19.6357 22.7148C19.6357 22.7153 19.6357 22.7158 19.6357 22.7163C19.6357 22.7168 19.6357 22.7172 19.6357 22.7177C19.6357 22.7182 19.6357 22.7187 19.6357 22.7192C19.6357 22.7197 19.6357 22.7202 19.6357 22.7206C19.6357 22.7211 19.6357 22.7216 19.6357 22.7221C19.6357 22.7226 19.6357 22.7231 19.6357 22.7236C19.6357 22.7241 19.6357 22.7245 19.6357 22.725C19.6357 22.7255 19.6357 22.726 19.6357 22.7265C19.6357 22.727 19.6357 22.7275 19.6357 22.728C19.6357 22.7284 19.6357 22.7289 19.6357 22.7294C19.6357 22.7299 19.6357 22.7304 19.6357 22.7309C19.6357 22.7314 19.6357 22.7319 19.6357 22.7324C19.6357 22.7328 19.6357 22.7333 19.6357 22.7338C19.6357 22.7343 19.6357 22.7348 19.6357 22.7353C19.6357 22.7358 19.6357 22.7363 19.6357 22.7368C19.6357 22.7373 19.6357 22.7377 19.6357 22.7382C19.6357 22.7387 19.6357 22.7392 19.6357 22.7397C19.6357 22.7402 19.6357 22.7407 19.6357 22.7412C19.6357 22.7417 19.6357 22.7422 19.6357 22.7427C19.6357 22.7431 19.6357 22.7436 19.6357 22.7441C19.6357 22.7446 19.6357 22.7451 19.6357 22.7456C19.6357 22.7461 19.6357 22.7466 19.6357 22.7471C19.6357 22.7476 19.6357 22.7481 19.6357 22.7486C19.6357 22.749 19.6357 22.7495 19.6357 22.75C19.6357 22.7505 19.6357 22.751 19.6357 22.7515C19.6357 22.752 19.6357 22.7525 19.6357 22.753C19.6357 22.7535 19.6357 22.754 19.6357 22.7545C19.6357 22.755 19.6357 22.7555 19.6357 22.7559C19.6357 22.7564 19.6357 22.7569 19.6357 22.7574C19.6357 22.7579 19.6357 22.7584 19.6357 22.7589C19.6357 22.7594 19.6357 22.7599 19.6357 22.7604C19.6357 22.7609 19.6357 22.7614 19.6357 22.7619C19.6357 22.7624 19.6357 22.7629 19.6357 22.7634C19.6357 22.7639 19.6357 22.7644 19.6357 22.7649C19.6357 22.7654 19.6357 22.7658 19.6357 22.7663C19.6357 22.7668 19.6357 22.7673 19.6357 22.7678C19.6357 22.7683 19.6357 22.7688 19.6357 22.7693C19.6357 22.7698 19.6357 22.7703 19.6357 22.7708C19.6357 22.7713 19.6357 22.7718 19.6357 22.7723C19.6357 22.7728 19.6357 22.7733 19.6357 22.7738C19.6357 22.7743 19.6357 22.7748 19.6357 22.7753C19.6357 22.7758 19.6357 22.7763 19.6357 22.7768C19.6357 22.7773 19.6357 22.7778 19.6357 22.7783C19.6357 22.7788 19.6357 22.7793 19.6357 22.7798C19.6357 22.7803 19.6357 22.7808 19.6357 22.7813C19.6357 22.7818 19.6357 22.7823 19.6357 22.7828C19.6357 22.7833 19.6357 22.7838 19.6357 22.7843C19.6357 22.7848 19.6357 22.7853 19.6357 22.7858C19.6357 22.7863 19.6357 22.7868 19.6357 22.7873C19.6357 22.7878 19.6357 22.7883 19.6357 22.7888C19.6357 22.7893 19.6357 22.7898 19.6357 22.7903C19.6357 22.7908 19.6357 22.7913 19.6357 22.7918C19.6357 22.7923 19.6357 22.7928 19.6357 22.7933C19.6357 22.7938 19.6357 22.7943 19.6357 22.7948C19.6357 22.7953 19.6357 22.7958 19.6357 22.7963C19.6357 22.7968 19.6357 22.7973 19.6357 22.7978C19.6357 22.7983 19.6357 22.7988 19.6357 22.7993C19.6357 22.7998 19.6357 22.8003 19.6357 22.8008C19.6357 22.8013 19.6357 22.8018 19.6357 22.8023C19.6357 22.8028 19.6357 22.8033 19.6357 22.8038C19.6357 22.8043 19.6357 22.8048 19.6357 22.8053C19.6357 22.8058 19.6357 22.8063 19.6357 22.8068C19.6357 22.8073 19.6357 22.8078 19.6357 22.8083C19.6357 22.8088 19.6357 22.8094 19.6357 22.8099C19.6357 22.8104 19.6357 22.8109 19.6357 22.8114C19.6357 22.8119 19.6357 22.8124 19.6357 22.8129C19.6357 22.8134 19.6357 22.8139 19.6357 22.8144C19.6357 22.8149 19.6357 22.8154 19.6357 22.8159C19.6357 22.8164 19.6357 22.8169 19.6357 22.8174C19.6357 22.8179 19.6357 22.8184 19.6357 22.819C19.6357 22.8195 19.6357 22.82 19.6357 22.8205C19.6357 22.821 19.6357 22.8215 19.6357 22.822C19.6357 22.8225 19.6357 22.823 19.6357 22.8235C19.6357 22.824 19.6357 22.8245 19.6357 22.825C19.6357 22.8255 19.6357 22.8261 19.6357 22.8266C19.6357 22.8271 19.6357 22.8276 19.6357 22.8281C19.6357 22.8286 19.6357 22.8291 19.6357 22.8296C19.6357 22.8301 19.6357 22.8306 19.6357 22.8311C19.6357 22.8316 19.6357 22.8322 19.6357 22.8327C19.6357 22.8332 19.6357 22.8337 19.6357 22.8342C19.6357 22.8347 19.6357 22.8352 19.6357 22.8357C19.6357 22.8362 19.6357 22.8367 19.6357 22.8372C19.6357 22.8378 19.6357 22.8383 19.6357 22.8388C19.6357 22.8393 19.6357 22.8398 19.6357 22.8403C19.6357 22.8408 19.6357 22.8413 19.6357 22.8418C19.6357 22.8423 19.6357 22.8429 19.6357 22.8434C19.6357 22.8439 19.6357 22.8444 19.6357 22.8449C19.6357 22.8454 19.6357 22.8459 19.6357 22.8464C19.6357 22.8469 19.6357 22.8475 19.6357 22.848C19.6357 22.8485 19.6357 22.849 19.6357 22.8495C19.6357 22.85 19.6357 22.8505 19.6357 22.851C19.6357 22.8516 19.6357 22.8521 19.6357 22.8526C19.6357 22.8531 19.6357 22.8536 19.6357 22.8541C19.6357 22.8546 19.6357 22.8551 19.6357 22.8557C19.6357 22.8562 19.6357 22.8567 19.6357 22.8572C19.6357 22.8577 19.6357 22.8582 19.6357 22.8587C19.6357 22.8593 19.6357 22.8598 19.6357 22.8603C19.6357 22.8608 19.6357 22.8613 19.6357 22.8618C19.6357 22.8623 19.6357 22.8629 19.6357 22.8634C19.6357 22.8639 19.6357 22.8644 19.6357 22.8649C19.6357 22.8654 19.6357 22.8659 19.6357 22.8665C19.6357 22.867 19.6357 22.8675 19.6357 22.868C19.6357 22.8685 19.6357 22.869 19.6357 22.8696C19.6357 22.8701 19.6357 22.8706 19.6357 22.8711C19.6357 22.8716 19.6357 22.8721 19.6357 22.8727C19.6357 22.8732 19.6357 22.8737 19.6357 22.8742C19.6357 22.8747 19.6357 22.8752 19.6357 22.8758C19.6357 22.8763 19.6357 22.8768 19.6357 22.8773C19.6357 22.8778 19.6357 22.8783 19.6357 22.8789C19.6357 22.8794 19.6357 22.8799 19.6357 22.8804C19.6357 22.8809 19.6357 22.8814 19.6357 22.882C19.6357 22.8825 19.6357 22.883 19.6357 22.8835C19.6357 22.884 19.6357 22.8846 19.6357 22.8851C19.6357 22.8856 19.6357 22.8861 19.6357 22.8866C19.6357 22.8872 19.6357 22.8877 19.6357 22.8882C19.6357 22.8887 19.6357 22.8892 19.6357 22.8898C19.6357 22.8903 19.6357 22.8908 19.6357 22.8913C19.6357 22.8918 19.6357 22.8924 19.6357 22.8929C19.6357 22.8934 19.6357 22.8939 19.6357 22.8944C19.6357 22.895 19.6357 22.8955 19.6357 22.896C19.6357 22.8965 19.6357 22.897 19.6357 22.8976C19.6357 22.8981 19.6357 22.8986 19.6357 22.8991C19.6357 22.8996 19.6357 22.9002 19.6357 22.9007C19.6357 22.9012 19.6357 22.9017 19.6357 22.9023C19.6357 22.9028 19.6357 22.9033 19.6357 22.9038C19.6357 22.9043 19.6357 22.9049 19.6357 22.9054C19.6357 22.9059 19.6357 22.9064 19.6357 22.907C19.6357 22.9075 19.6357 22.908 19.6357 22.9085C19.6357 22.9091 19.6357 22.9096 19.6357 22.9101C19.6357 22.9106 19.6357 22.9111 19.6357 22.9117C19.6357 22.9122 19.6357 22.9127 19.6357 22.9132C19.6357 22.9138 19.6357 22.9143 19.6357 22.9148C19.6357 22.9153 19.6357 22.9159 19.6357 22.9164C19.6357 22.9169 19.6357 22.9174 19.6357 22.918H21.6357ZM21.6355 22.2508C21.64 22.0562 21.6445 21.8803 21.649 21.7229L19.6498 21.6658C19.6452 21.8274 19.6406 22.0069 19.636 22.2043L21.6355 22.2508ZM21.6479 21.7498C21.6565 21.5944 21.6673 21.4366 21.6803 21.2761L19.6869 21.1145C19.6725 21.2913 19.6606 21.4661 19.651 21.6389L21.6479 21.7498ZM19.9654 20.4995C19.8409 20.6279 19.7322 20.7304 19.6386 20.81L20.9356 22.3325C21.0881 22.2026 21.2437 22.0543 21.4018 21.8911L19.9654 20.4995ZM19.6554 20.7961C19.5303 20.8981 19.3759 21.0248 19.1927 21.1759L20.4655 22.7186C20.6469 22.569 20.7979 22.445 20.9188 22.3465L19.6554 20.7961ZM19.2033 21.1673L18.0617 22.0833L19.3133 23.6432L20.4549 22.7272L19.2033 21.1673ZM19.4799 22.2532L18.8851 21.4808L17.3004 22.7009L17.8951 23.4733L19.4799 22.2532ZM18.703 22.8831L21.41 20.7981L20.1896 19.2136L17.4826 21.2986L18.703 22.8831ZM20.7998 21.0059H21.7432V19.0059H20.7998V21.0059ZM20.7432 20.0059V30H22.7432V20.0059H20.7432Z" fill="#D1D1D1" mask="url(#path-2-inside-1_8045_318)"/>
<line x1="42.3281" y1="14.5" x2="42.3281" y2="34.5" stroke="#D1D1D1"/>
<g clip-path="url(#clip0_8045_318)">
<path d="M64.7641 22.716C64.7641 23.164 64.6561 23.584 64.4401 23.976C64.2321 24.368 63.9001 24.684 63.4441 24.924C62.9961 25.164 62.4281 25.284 61.7401 25.284H60.3361V28.5H58.6561V20.124H61.7401C62.3881 20.124 62.9401 20.236 63.3961 20.46C63.8521 20.684 64.1921 20.992 64.4161 21.384C64.6481 21.776 64.7641 22.22 64.7641 22.716ZM61.6681 23.928C62.1321 23.928 62.4761 23.824 62.7001 23.616C62.9241 23.4 63.0361 23.1 63.0361 22.716C63.0361 21.9 62.5801 21.492 61.6681 21.492H60.3361V23.928H61.6681ZM65.5249 25.176C65.5249 24.488 65.6649 23.888 65.9449 23.376C66.2249 22.856 66.6129 22.456 67.1089 22.176C67.6049 21.888 68.1729 21.744 68.8129 21.744C69.6369 21.744 70.3169 21.952 70.8529 22.368C71.3969 22.776 71.7609 23.352 71.9449 24.096H70.1329C70.0369 23.808 69.8729 23.584 69.6409 23.424C69.4169 23.256 69.1369 23.172 68.8009 23.172C68.3209 23.172 67.9409 23.348 67.6609 23.7C67.3809 24.044 67.2409 24.536 67.2409 25.176C67.2409 25.808 67.3809 26.3 67.6609 26.652C67.9409 26.996 68.3209 27.168 68.8009 27.168C69.4809 27.168 69.9249 26.864 70.1329 26.256H71.9449C71.7609 26.976 71.3969 27.548 70.8529 27.972C70.3089 28.396 69.6289 28.608 68.8129 28.608C68.1729 28.608 67.6049 28.468 67.1089 28.188C66.6129 27.9 66.2249 27.5 65.9449 26.988C65.6649 26.468 65.5249 25.864 65.5249 25.176ZM75.7197 28.608C75.1757 28.608 74.6877 28.512 74.2557 28.32C73.8237 28.12 73.4797 27.852 73.2237 27.516C72.9757 27.18 72.8397 26.808 72.8157 26.4H74.5077C74.5397 26.656 74.6637 26.868 74.8797 27.036C75.1037 27.204 75.3797 27.288 75.7077 27.288C76.0277 27.288 76.2757 27.224 76.4517 27.096C76.6357 26.968 76.7277 26.804 76.7277 26.604C76.7277 26.388 76.6157 26.228 76.3917 26.124C76.1757 26.012 75.8277 25.892 75.3477 25.764C74.8517 25.644 74.4437 25.52 74.1237 25.392C73.8117 25.264 73.5397 25.068 73.3077 24.804C73.0837 24.54 72.9717 24.184 72.9717 23.736C72.9717 23.368 73.0757 23.032 73.2837 22.728C73.4997 22.424 73.8037 22.184 74.1957 22.008C74.5957 21.832 75.0637 21.744 75.5997 21.744C76.3917 21.744 77.0237 21.944 77.4957 22.344C77.9677 22.736 78.2277 23.268 78.2757 23.94H76.6677C76.6437 23.676 76.5317 23.468 76.3317 23.316C76.1397 23.156 75.8797 23.076 75.5517 23.076C75.2477 23.076 75.0117 23.132 74.8437 23.244C74.6837 23.356 74.6037 23.512 74.6037 23.712C74.6037 23.936 74.7157 24.108 74.9397 24.228C75.1637 24.34 75.5117 24.456 75.9837 24.576C76.4637 24.696 76.8597 24.82 77.1717 24.948C77.4837 25.076 77.7517 25.276 77.9757 25.548C78.2077 25.812 78.3277 26.164 78.3357 26.604C78.3357 26.988 78.2277 27.332 78.0117 27.636C77.8037 27.94 77.4997 28.18 77.0997 28.356C76.7077 28.524 76.2477 28.608 75.7197 28.608Z" fill="#151515"/>
<path d="M87.4375 23.4L89.4925 25.455C89.5862 25.5481 89.7129 25.6004 89.845 25.6004C89.9771 25.6004 90.1038 25.5481 90.1975 25.455L92.1975 23.455" stroke="#151515" stroke-width="1.5" stroke-linecap="round" stroke-linejoin="bevel"/>
</g>
<defs>
<clipPath id="clip0_8045_318">
<rect width="38" height="18" fill="white" transform="translate(57.8281 15.5)"/>
</clipPath>
</defs>
</svg>
