<svg width="82" height="19" viewBox="0 0 82 19" fill="none" xmlns="http://www.w3.org/2000/svg">
<rect y="0.5" width="82" height="18" rx="9" fill="#F4F8EC"/>
<path d="M11.756 5.124C12.636 5.124 13.408 5.296 14.072 5.64C14.744 5.984 15.26 6.476 15.62 7.116C15.988 7.748 16.172 8.484 16.172 9.324C16.172 10.164 15.988 10.9 15.62 11.532C15.26 12.156 14.744 12.64 14.072 12.984C13.408 13.328 12.636 13.5 11.756 13.5H8.828V5.124H11.756ZM11.696 12.072C12.576 12.072 13.256 11.832 13.736 11.352C14.216 10.872 14.456 10.196 14.456 9.324C14.456 8.452 14.216 7.772 13.736 7.284C13.256 6.788 12.576 6.54 11.696 6.54H10.508V12.072H11.696ZM18.2816 6.06C17.9856 6.06 17.7376 5.968 17.5376 5.784C17.3456 5.592 17.2496 5.356 17.2496 5.076C17.2496 4.796 17.3456 4.564 17.5376 4.38C17.7376 4.188 17.9856 4.092 18.2816 4.092C18.5776 4.092 18.8216 4.188 19.0136 4.38C19.2136 4.564 19.3136 4.796 19.3136 5.076C19.3136 5.356 19.2136 5.592 19.0136 5.784C18.8216 5.968 18.5776 6.06 18.2816 6.06ZM19.1096 6.852V13.5H17.4296V6.852H19.1096ZM24.4534 6.756C25.2454 6.756 25.8854 7.008 26.3734 7.512C26.8614 8.008 27.1054 8.704 27.1054 9.6V13.5H25.4254V9.828C25.4254 9.3 25.2934 8.896 25.0294 8.616C24.7654 8.328 24.4054 8.184 23.9494 8.184C23.4854 8.184 23.1174 8.328 22.8454 8.616C22.5814 8.896 22.4494 9.3 22.4494 9.828V13.5H20.7694V6.852H22.4494V7.68C22.6734 7.392 22.9574 7.168 23.3014 7.008C23.6534 6.84 24.0374 6.756 24.4534 6.756ZM32.387 6.756C33.179 6.756 33.819 7.008 34.307 7.512C34.795 8.008 35.039 8.704 35.039 9.6V13.5H33.359V9.828C33.359 9.3 33.227 8.896 32.963 8.616C32.699 8.328 32.339 8.184 31.883 8.184C31.419 8.184 31.051 8.328 30.779 8.616C30.515 8.896 30.383 9.3 30.383 9.828V13.5H28.703V6.852H30.383V7.68C30.607 7.392 30.891 7.168 31.235 7.008C31.587 6.84 31.971 6.756 32.387 6.756ZM42.8166 10.032C42.8166 10.272 42.8006 10.488 42.7686 10.68H37.9086C37.9486 11.16 38.1166 11.536 38.4126 11.808C38.7086 12.08 39.0726 12.216 39.5046 12.216C40.1286 12.216 40.5726 11.948 40.8366 11.412H42.6486C42.4566 12.052 42.0886 12.58 41.5446 12.996C41.0006 13.404 40.3326 13.608 39.5406 13.608C38.9006 13.608 38.3246 13.468 37.8126 13.188C37.3086 12.9 36.9126 12.496 36.6246 11.976C36.3446 11.456 36.2046 10.856 36.2046 10.176C36.2046 9.488 36.3446 8.884 36.6246 8.364C36.9046 7.844 37.2966 7.444 37.8006 7.164C38.3046 6.884 38.8846 6.744 39.5406 6.744C40.1726 6.744 40.7366 6.88 41.2326 7.152C41.7366 7.424 42.1246 7.812 42.3966 8.316C42.6766 8.812 42.8166 9.384 42.8166 10.032ZM41.0766 9.552C41.0686 9.12 40.9126 8.776 40.6086 8.52C40.3046 8.256 39.9326 8.124 39.4926 8.124C39.0766 8.124 38.7246 8.252 38.4366 8.508C38.1566 8.756 37.9846 9.104 37.9206 9.552H41.0766ZM45.7228 7.884C45.9388 7.532 46.2188 7.256 46.5628 7.056C46.9148 6.856 47.3148 6.756 47.7628 6.756V8.52H47.3188C46.7908 8.52 46.3908 8.644 46.1188 8.892C45.8548 9.14 45.7228 9.572 45.7228 10.188V13.5H44.0428V6.852H45.7228V7.884ZM53.7098 8.232V11.448C53.7098 11.672 53.7618 11.836 53.8658 11.94C53.9778 12.036 54.1618 12.084 54.4178 12.084H55.1978V13.5H54.1418C52.7258 13.5 52.0178 12.812 52.0178 11.436V8.232H51.2258V6.852H52.0178V5.208H53.7098V6.852H55.1978V8.232H53.7098ZM57.2581 6.06C56.9621 6.06 56.7141 5.968 56.5141 5.784C56.3221 5.592 56.2261 5.356 56.2261 5.076C56.2261 4.796 56.3221 4.564 56.5141 4.38C56.7141 4.188 56.9621 4.092 57.2581 4.092C57.5541 4.092 57.7981 4.188 57.9901 4.38C58.1901 4.564 58.2901 4.796 58.2901 5.076C58.2901 5.356 58.1901 5.592 57.9901 5.784C57.7981 5.968 57.5541 6.06 57.2581 6.06ZM58.0861 6.852V13.5H56.4061V6.852H58.0861ZM61.426 7.812C61.642 7.508 61.938 7.256 62.314 7.056C62.698 6.848 63.134 6.744 63.622 6.744C64.19 6.744 64.702 6.884 65.158 7.164C65.622 7.444 65.986 7.844 66.25 8.364C66.522 8.876 66.658 9.472 66.658 10.152C66.658 10.832 66.522 11.436 66.25 11.964C65.986 12.484 65.622 12.888 65.158 13.176C64.702 13.464 64.19 13.608 63.622 13.608C63.134 13.608 62.702 13.508 62.326 13.308C61.958 13.108 61.658 12.856 61.426 12.552V16.668H59.746V6.852H61.426V7.812ZM64.942 10.152C64.942 9.752 64.858 9.408 64.69 9.12C64.53 8.824 64.314 8.6 64.042 8.448C63.778 8.296 63.49 8.22 63.178 8.22C62.874 8.22 62.586 8.3 62.314 8.46C62.05 8.612 61.834 8.836 61.666 9.132C61.506 9.428 61.426 9.776 61.426 10.176C61.426 10.576 61.506 10.924 61.666 11.22C61.834 11.516 62.05 11.744 62.314 11.904C62.586 12.056 62.874 12.132 63.178 12.132C63.49 12.132 63.778 12.052 64.042 11.892C64.314 11.732 64.53 11.504 64.69 11.208C64.858 10.912 64.942 10.56 64.942 10.152ZM70.4228 13.608C69.8788 13.608 69.3908 13.512 68.9588 13.32C68.5268 13.12 68.1828 12.852 67.9268 12.516C67.6788 12.18 67.5428 11.808 67.5188 11.4H69.2108C69.2428 11.656 69.3668 11.868 69.5828 12.036C69.8068 12.204 70.0828 12.288 70.4108 12.288C70.7308 12.288 70.9788 12.224 71.1548 12.096C71.3388 11.968 71.4308 11.804 71.4308 11.604C71.4308 11.388 71.3188 11.228 71.0948 11.124C70.8788 11.012 70.5308 10.892 70.0508 10.764C69.5548 10.644 69.1468 10.52 68.8268 10.392C68.5148 10.264 68.2428 10.068 68.0108 9.804C67.7868 9.54 67.6748 9.184 67.6748 8.736C67.6748 8.368 67.7788 8.032 67.9868 7.728C68.2028 7.424 68.5068 7.184 68.8988 7.008C69.2988 6.832 69.7668 6.744 70.3028 6.744C71.0948 6.744 71.7268 6.944 72.1988 7.344C72.6708 7.736 72.9308 8.268 72.9788 8.94H71.3708C71.3468 8.676 71.2348 8.468 71.0348 8.316C70.8428 8.156 70.5828 8.076 70.2548 8.076C69.9508 8.076 69.7148 8.132 69.5468 8.244C69.3868 8.356 69.3068 8.512 69.3068 8.712C69.3068 8.936 69.4188 9.108 69.6428 9.228C69.8668 9.34 70.2148 9.456 70.6868 9.576C71.1668 9.696 71.5628 9.82 71.8748 9.948C72.1868 10.076 72.4548 10.276 72.6788 10.548C72.9108 10.812 73.0308 11.164 73.0388 11.604C73.0388 11.988 72.9308 12.332 72.7148 12.636C72.5068 12.94 72.2028 13.18 71.8028 13.356C71.4108 13.524 70.9508 13.608 70.4228 13.608Z" fill="#6A983C"/>
</svg>
