<svg width="54" height="18" viewBox="0 0 54 18" fill="none" xmlns="http://www.w3.org/2000/svg">
<rect width="54" height="18" rx="9" fill="#F4F8EC"/>
<path d="M13.94 8.008V9.424H8.852V8.008H13.94ZM18.5155 6.556C18.5555 5.756 18.8355 5.14 19.3555 4.708C19.8835 4.268 20.5755 4.048 21.4315 4.048C22.0155 4.048 22.5155 4.152 22.9315 4.36C23.3475 4.56 23.6595 4.836 23.8675 5.188C24.0835 5.532 24.1915 5.924 24.1915 6.364C24.1915 6.868 24.0595 7.296 23.7955 7.648C23.5395 7.992 23.2315 8.224 22.8715 8.344V8.392C23.3355 8.536 23.6955 8.792 23.9515 9.16C24.2155 9.528 24.3475 10 24.3475 10.576C24.3475 11.056 24.2355 11.484 24.0115 11.86C23.7955 12.236 23.4715 12.532 23.0395 12.748C22.6155 12.956 22.1035 13.06 21.5035 13.06C20.5995 13.06 19.8635 12.832 19.2955 12.376C18.7275 11.92 18.4275 11.248 18.3955 10.36H20.0275C20.0435 10.752 20.1755 11.068 20.4235 11.308C20.6795 11.54 21.0275 11.656 21.4675 11.656C21.8755 11.656 22.1875 11.544 22.4035 11.32C22.6275 11.088 22.7395 10.792 22.7395 10.432C22.7395 9.952 22.5875 9.608 22.2835 9.4C21.9795 9.192 21.5075 9.088 20.8675 9.088H20.5195V7.708H20.8675C22.0035 7.708 22.5715 7.328 22.5715 6.568C22.5715 6.224 22.4675 5.956 22.2595 5.764C22.0595 5.572 21.7675 5.476 21.3835 5.476C21.0075 5.476 20.7155 5.58 20.5075 5.788C20.3075 5.988 20.1915 6.244 20.1595 6.556H18.5155ZM30.2111 6.436C30.1311 6.1 29.9911 5.848 29.7911 5.68C29.5991 5.512 29.3191 5.428 28.9511 5.428C28.3991 5.428 27.9911 5.652 27.7271 6.1C27.4711 6.54 27.3391 7.26 27.3311 8.26C27.5231 7.94 27.8031 7.692 28.1711 7.516C28.5391 7.332 28.9391 7.24 29.3711 7.24C29.8911 7.24 30.3511 7.352 30.7511 7.576C31.1511 7.8 31.4631 8.128 31.6871 8.56C31.9111 8.984 32.0231 9.496 32.0231 10.096C32.0231 10.664 31.9071 11.172 31.6751 11.62C31.4511 12.06 31.1191 12.404 30.6791 12.652C30.2391 12.9 29.7151 13.024 29.1071 13.024C28.2751 13.024 27.6191 12.84 27.1391 12.472C26.6671 12.104 26.3351 11.592 26.1431 10.936C25.9591 10.272 25.8671 9.456 25.8671 8.488C25.8671 7.024 26.1191 5.92 26.6231 5.176C27.1271 4.424 27.9231 4.048 29.0111 4.048C29.8511 4.048 30.5031 4.276 30.9671 4.732C31.4311 5.188 31.6991 5.756 31.7711 6.436H30.2111ZM28.9871 8.62C28.5631 8.62 28.2071 8.744 27.9191 8.992C27.6311 9.24 27.4871 9.6 27.4871 10.072C27.4871 10.544 27.6191 10.916 27.8831 11.188C28.1551 11.46 28.5351 11.596 29.0231 11.596C29.4551 11.596 29.7951 11.464 30.0431 11.2C30.2991 10.936 30.4271 10.58 30.4271 10.132C30.4271 9.668 30.3031 9.3 30.0551 9.028C29.8151 8.756 29.4591 8.62 28.9871 8.62ZM36.0182 6.4C36.0182 5.792 36.1942 5.316 36.5462 4.972C36.9062 4.628 37.3662 4.456 37.9262 4.456C38.4862 4.456 38.9422 4.628 39.2942 4.972C39.6542 5.316 39.8342 5.792 39.8342 6.4C39.8342 7.016 39.6542 7.496 39.2942 7.84C38.9422 8.184 38.4862 8.356 37.9262 8.356C37.3662 8.356 36.9062 8.184 36.5462 7.84C36.1942 7.496 36.0182 7.016 36.0182 6.4ZM43.7222 4.6L39.0062 13H37.3742L42.0782 4.6H43.7222ZM37.9142 5.464C37.4742 5.464 37.2542 5.776 37.2542 6.4C37.2542 7.032 37.4742 7.348 37.9142 7.348C38.1302 7.348 38.2982 7.272 38.4182 7.12C38.5382 6.96 38.5982 6.72 38.5982 6.4C38.5982 5.776 38.3702 5.464 37.9142 5.464ZM41.2862 11.188C41.2862 10.572 41.4622 10.096 41.8142 9.76C42.1742 9.416 42.6342 9.244 43.1942 9.244C43.7542 9.244 44.2062 9.416 44.5502 9.76C44.9022 10.096 45.0782 10.572 45.0782 11.188C45.0782 11.804 44.9022 12.284 44.5502 12.628C44.2062 12.972 43.7542 13.144 43.1942 13.144C42.6262 13.144 42.1662 12.972 41.8142 12.628C41.4622 12.284 41.2862 11.804 41.2862 11.188ZM43.1822 10.252C42.7262 10.252 42.4982 10.564 42.4982 11.188C42.4982 11.82 42.7262 12.136 43.1822 12.136C43.6302 12.136 43.8542 11.82 43.8542 11.188C43.8542 10.564 43.6302 10.252 43.1822 10.252Z" fill="#6A983C"/>
</svg>
