<svg width="118" height="18" viewBox="0 0 118 18" fill="none" xmlns="http://www.w3.org/2000/svg">
<rect width="118" height="18" rx="9" fill="#F4F8EC"/>
<path d="M11.72 13.084C11.136 13.084 10.608 12.984 10.136 12.784C9.672 12.584 9.304 12.296 9.032 11.92C8.76 11.544 8.62 11.1 8.612 10.588H10.412C10.436 10.932 10.556 11.204 10.772 11.404C10.996 11.604 11.3 11.704 11.684 11.704C12.076 11.704 12.384 11.612 12.608 11.428C12.832 11.236 12.944 10.988 12.944 10.684C12.944 10.436 12.868 10.232 12.716 10.072C12.564 9.912 12.372 9.788 12.14 9.7C11.916 9.604 11.604 9.5 11.204 9.388C10.66 9.228 10.216 9.072 9.872 8.92C9.536 8.76 9.244 8.524 8.996 8.212C8.756 7.892 8.636 7.468 8.636 6.94C8.636 6.444 8.76 6.012 9.008 5.644C9.256 5.276 9.604 4.996 10.052 4.804C10.5 4.604 11.012 4.504 11.588 4.504C12.452 4.504 13.152 4.716 13.688 5.14C14.232 5.556 14.532 6.14 14.588 6.892H12.74C12.724 6.604 12.6 6.368 12.368 6.184C12.144 5.992 11.844 5.896 11.468 5.896C11.14 5.896 10.876 5.98 10.676 6.148C10.484 6.316 10.388 6.56 10.388 6.88C10.388 7.104 10.46 7.292 10.604 7.444C10.756 7.588 10.94 7.708 11.156 7.804C11.38 7.892 11.692 7.996 12.092 8.116C12.636 8.276 13.08 8.436 13.424 8.596C13.768 8.756 14.064 8.996 14.312 9.316C14.56 9.636 14.684 10.056 14.684 10.576C14.684 11.024 14.568 11.44 14.336 11.824C14.104 12.208 13.764 12.516 13.316 12.748C12.868 12.972 12.336 13.084 11.72 13.084ZM22.3205 9.532C22.3205 9.772 22.3045 9.988 22.2725 10.18H17.4125C17.4525 10.66 17.6205 11.036 17.9165 11.308C18.2125 11.58 18.5765 11.716 19.0085 11.716C19.6325 11.716 20.0765 11.448 20.3405 10.912H22.1525C21.9605 11.552 21.5925 12.08 21.0485 12.496C20.5045 12.904 19.8365 13.108 19.0445 13.108C18.4045 13.108 17.8285 12.968 17.3165 12.688C16.8125 12.4 16.4165 11.996 16.1285 11.476C15.8485 10.956 15.7085 10.356 15.7085 9.676C15.7085 8.988 15.8485 8.384 16.1285 7.864C16.4085 7.344 16.8005 6.944 17.3045 6.664C17.8085 6.384 18.3885 6.244 19.0445 6.244C19.6765 6.244 20.2405 6.38 20.7365 6.652C21.2405 6.924 21.6285 7.312 21.9005 7.816C22.1805 8.312 22.3205 8.884 22.3205 9.532ZM20.5805 9.052C20.5725 8.62 20.4165 8.276 20.1125 8.02C19.8085 7.756 19.4365 7.624 18.9965 7.624C18.5805 7.624 18.2285 7.752 17.9405 8.008C17.6605 8.256 17.4885 8.604 17.4245 9.052H20.5805ZM25.2268 4.12V13H23.5468V4.12H25.2268ZM33.0666 9.532C33.0666 9.772 33.0506 9.988 33.0186 10.18H28.1586C28.1986 10.66 28.3666 11.036 28.6626 11.308C28.9586 11.58 29.3226 11.716 29.7546 11.716C30.3786 11.716 30.8226 11.448 31.0866 10.912H32.8986C32.7066 11.552 32.3386 12.08 31.7946 12.496C31.2506 12.904 30.5826 13.108 29.7906 13.108C29.1506 13.108 28.5746 12.968 28.0626 12.688C27.5586 12.4 27.1626 11.996 26.8746 11.476C26.5946 10.956 26.4546 10.356 26.4546 9.676C26.4546 8.988 26.5946 8.384 26.8746 7.864C27.1546 7.344 27.5466 6.944 28.0506 6.664C28.5546 6.384 29.1346 6.244 29.7906 6.244C30.4226 6.244 30.9866 6.38 31.4826 6.652C31.9866 6.924 32.3746 7.312 32.6466 7.816C32.9266 8.312 33.0666 8.884 33.0666 9.532ZM31.3266 9.052C31.3186 8.62 31.1626 8.276 30.8586 8.02C30.5546 7.756 30.1826 7.624 29.7426 7.624C29.3266 7.624 28.9746 7.752 28.6866 8.008C28.4066 8.256 28.2346 8.604 28.1706 9.052H31.3266ZM33.8608 9.676C33.8608 8.988 34.0008 8.388 34.2808 7.876C34.5608 7.356 34.9488 6.956 35.4448 6.676C35.9408 6.388 36.5088 6.244 37.1488 6.244C37.9728 6.244 38.6528 6.452 39.1888 6.868C39.7328 7.276 40.0968 7.852 40.2808 8.596H38.4688C38.3728 8.308 38.2088 8.084 37.9768 7.924C37.7528 7.756 37.4728 7.672 37.1368 7.672C36.6568 7.672 36.2768 7.848 35.9968 8.2C35.7168 8.544 35.5768 9.036 35.5768 9.676C35.5768 10.308 35.7168 10.8 35.9968 11.152C36.2768 11.496 36.6568 11.668 37.1368 11.668C37.8168 11.668 38.2608 11.364 38.4688 10.756H40.2808C40.0968 11.476 39.7328 12.048 39.1888 12.472C38.6448 12.896 37.9648 13.108 37.1488 13.108C36.5088 13.108 35.9408 12.968 35.4448 12.688C34.9488 12.4 34.5608 12 34.2808 11.488C34.0008 10.968 33.8608 10.364 33.8608 9.676ZM43.4676 7.732V10.948C43.4676 11.172 43.5196 11.336 43.6236 11.44C43.7356 11.536 43.9196 11.584 44.1756 11.584H44.9556V13H43.8996C42.4836 13 41.7756 12.312 41.7756 10.936V7.732H40.9836V6.352H41.7756V4.708H43.4676V6.352H44.9556V7.732H43.4676ZM52.3439 9.532C52.3439 9.772 52.3279 9.988 52.2959 10.18H47.4359C47.4759 10.66 47.6439 11.036 47.9399 11.308C48.2359 11.58 48.5999 11.716 49.0319 11.716C49.6559 11.716 50.0999 11.448 50.3639 10.912H52.1759C51.9839 11.552 51.6159 12.08 51.0719 12.496C50.5279 12.904 49.8599 13.108 49.0679 13.108C48.4279 13.108 47.8519 12.968 47.3399 12.688C46.8359 12.4 46.4399 11.996 46.1519 11.476C45.8719 10.956 45.7319 10.356 45.7319 9.676C45.7319 8.988 45.8719 8.384 46.1519 7.864C46.4319 7.344 46.8239 6.944 47.3279 6.664C47.8319 6.384 48.4119 6.244 49.0679 6.244C49.6999 6.244 50.2639 6.38 50.7599 6.652C51.2639 6.924 51.6519 7.312 51.9239 7.816C52.2039 8.312 52.3439 8.884 52.3439 9.532ZM50.6039 9.052C50.5959 8.62 50.4399 8.276 50.1359 8.02C49.8319 7.756 49.4599 7.624 49.0199 7.624C48.6039 7.624 48.2519 7.752 47.9639 8.008C47.6839 8.256 47.5119 8.604 47.4479 9.052H50.6039ZM53.1382 9.652C53.1382 8.98 53.2702 8.384 53.5342 7.864C53.8062 7.344 54.1742 6.944 54.6382 6.664C55.1022 6.384 55.6182 6.244 56.1862 6.244C56.6182 6.244 57.0302 6.34 57.4222 6.532C57.8142 6.716 58.1262 6.964 58.3582 7.276V4.12H60.0622V13H58.3582V12.016C58.1502 12.344 57.8582 12.608 57.4822 12.808C57.1062 13.008 56.6702 13.108 56.1742 13.108C55.6142 13.108 55.1022 12.964 54.6382 12.676C54.1742 12.388 53.8062 11.984 53.5342 11.464C53.2702 10.936 53.1382 10.332 53.1382 9.652ZM58.3702 9.676C58.3702 9.268 58.2902 8.92 58.1302 8.632C57.9702 8.336 57.7542 8.112 57.4822 7.96C57.2102 7.8 56.9182 7.72 56.6062 7.72C56.2942 7.72 56.0062 7.796 55.7422 7.948C55.4782 8.1 55.2622 8.324 55.0942 8.62C54.9342 8.908 54.8542 9.252 54.8542 9.652C54.8542 10.052 54.9342 10.404 55.0942 10.708C55.2622 11.004 55.4782 11.232 55.7422 11.392C56.0142 11.552 56.3022 11.632 56.6062 11.632C56.9182 11.632 57.2102 11.556 57.4822 11.404C57.7542 11.244 57.9702 11.02 58.1302 10.732C58.2902 10.436 58.3702 10.084 58.3702 9.676ZM69.7344 4.624V5.98H66.2424V8.128H68.9184V9.46H66.2424V13H64.5624V4.624H69.7344ZM71.7777 5.56C71.4817 5.56 71.2337 5.468 71.0337 5.284C70.8417 5.092 70.7457 4.856 70.7457 4.576C70.7457 4.296 70.8417 4.064 71.0337 3.88C71.2337 3.688 71.4817 3.592 71.7777 3.592C72.0737 3.592 72.3177 3.688 72.5097 3.88C72.7097 4.064 72.8097 4.296 72.8097 4.576C72.8097 4.856 72.7097 5.092 72.5097 5.284C72.3177 5.468 72.0737 5.56 71.7777 5.56ZM72.6057 6.352V13H70.9257V6.352H72.6057ZM75.9455 4.12V13H74.2655V4.12H75.9455ZM79.5613 7.732V10.948C79.5613 11.172 79.6133 11.336 79.7173 11.44C79.8293 11.536 80.0133 11.584 80.2693 11.584H81.0493V13H79.9933C78.5773 13 77.8693 12.312 77.8693 10.936V7.732H77.0773V6.352H77.8693V4.708H79.5613V6.352H81.0493V7.732H79.5613ZM83.9377 7.384C84.1537 7.032 84.4337 6.756 84.7777 6.556C85.1297 6.356 85.5297 6.256 85.9777 6.256V8.02H85.5337C85.0057 8.02 84.6057 8.144 84.3337 8.392C84.0697 8.64 83.9377 9.072 83.9377 9.688V13H82.2577V6.352H83.9377V7.384ZM93.2893 9.532C93.2893 9.772 93.2733 9.988 93.2413 10.18H88.3813C88.4213 10.66 88.5893 11.036 88.8853 11.308C89.1813 11.58 89.5453 11.716 89.9773 11.716C90.6013 11.716 91.0453 11.448 91.3093 10.912H93.1213C92.9293 11.552 92.5613 12.08 92.0173 12.496C91.4733 12.904 90.8053 13.108 90.0133 13.108C89.3733 13.108 88.7973 12.968 88.2853 12.688C87.7813 12.4 87.3853 11.996 87.0973 11.476C86.8173 10.956 86.6772 10.356 86.6772 9.676C86.6772 8.988 86.8173 8.384 87.0973 7.864C87.3773 7.344 87.7693 6.944 88.2733 6.664C88.7773 6.384 89.3573 6.244 90.0133 6.244C90.6453 6.244 91.2093 6.38 91.7053 6.652C92.2093 6.924 92.5973 7.312 92.8693 7.816C93.1493 8.312 93.2893 8.884 93.2893 9.532ZM91.5493 9.052C91.5413 8.62 91.3853 8.276 91.0813 8.02C90.7773 7.756 90.4053 7.624 89.9653 7.624C89.5493 7.624 89.1973 7.752 88.9093 8.008C88.6293 8.256 88.4573 8.604 88.3933 9.052H91.5493Z" fill="#6A983C"/>
<path d="M107.18 12.18L100.82 5.82" stroke="#C8DEB3" stroke-width="1.5" stroke-linecap="round" stroke-linejoin="bevel"/>
<path d="M107.18 5.82L100.82 12.18" stroke="#C8DEB3" stroke-width="1.5" stroke-linecap="round" stroke-linejoin="bevel"/>
</svg>
